<?xml version="1.0" encoding="UTF-8" standalone="no"?>
<!DOCTYPE svg PUBLIC "-//W3C//DTD SVG 1.1//EN" "http://www.w3.org/Graphics/SVG/1.1/DTD/svg11.dtd">
<svg width="100%" height="100%" viewBox="0 0 600 600" version="1.1" xmlns="http://www.w3.org/2000/svg" xmlns:xlink="http://www.w3.org/1999/xlink" xml:space="preserve" xmlns:serif="http://www.serif.com/" style="fill-rule:evenodd;clip-rule:evenodd;stroke-linecap:round;stroke-linejoin:round;stroke-miterlimit:1.5;">
    <g transform="matrix(1,0,0,1,0,72.963)">
        <path d="M0,335.431C73.327,252.36 180.589,199.931 300,199.931C419.411,199.931 526.673,252.36 600,335.431L600,337.028" style="fill:none;stroke:black;stroke-width:11.67px;"/>
    </g>
    <g transform="matrix(12.3396,0,0,12.3396,1.13687e-13,434.907)">
        <path d="M35.432,10.815L35.479,11.176L34.938,11.288L34.866,12.057L35.514,12.057L36.376,11.974L36.821,11.445L36.348,11.261L36.089,10.963L35.7,10.333L35.514,9.442L34.783,9.591L34.578,9.905L34.578,10.259L34.93,10.5L35.432,10.815Z" style="fill-rule:nonzero;"/>
    </g>
    <g transform="matrix(12.3396,0,0,12.3396,1.13687e-13,434.907)">
        <path d="M34.809,11.111L34.848,10.629L34.419,10.444L33.819,10.583L33.374,11.297L33.374,11.76L33.893,11.76L34.809,11.111Z" style="fill-rule:nonzero;"/>
    </g>
    <g id="sun-2.svg" transform="matrix(0.241225,0,0,0.241225,298.475,85.3077)">
        <g transform="matrix(1,0,0,1,-256,-256)">
            <clipPath id="_clip1">
                <rect x="0" y="0" width="512" height="512"/>
            </clipPath>
            <g clip-path="url(#_clip1)">
                <g>
                    <circle cx="256" cy="396" r="10"/>
                    <path d="M503.354,246.092C502.849,246.023 452.729,238.716 443.872,205.66C435.015,172.603 474.767,141.216 475.156,140.913C479.117,137.852 480.205,132.335 477.702,128C475.2,123.665 469.877,121.851 465.246,123.748C464.775,123.942 417.858,142.795 393.532,118.468C369.333,94.269 388.065,47.211 388.251,46.754C390.151,42.123 388.334,36.801 384,34.298C379.666,31.795 374.147,32.883 371.087,36.844C370.776,37.246 339.569,77.027 306.34,68.128C273.283,59.271 265.977,9.15 265.907,8.646C265.231,3.693 261,0 256,0C250.995,0 246.76,3.701 246.09,8.661C246.022,9.166 238.891,59.224 205.66,68.128C172.607,76.986 141.216,37.233 140.913,36.844C137.852,32.884 132.334,31.794 128,34.298C123.665,36.801 121.848,42.123 123.749,46.754C123.942,47.225 142.795,94.141 118.468,118.468C94.267,142.667 47.211,123.934 46.754,123.748C42.128,121.851 36.819,123.666 34.313,127.991C31.807,132.316 32.886,137.833 36.832,140.903C37.234,141.216 76.986,172.603 68.129,205.66C59.27,238.716 9.15,246.022 8.662,246.09C3.707,246.759 0.017,250.986 0.009,255.985C0.001,260.985 3.694,265.223 8.646,265.909C9.151,265.978 59.271,273.285 68.128,306.341C76.985,339.398 37.233,370.785 36.844,371.088C32.883,374.149 31.795,379.666 34.298,384.001C36.8,388.335 42.124,390.151 46.754,388.253C47.225,388.059 94.142,369.206 118.468,393.533C142.667,417.732 123.935,464.79 123.749,465.247C121.849,469.878 123.666,475.2 128,477.703C132.336,480.207 137.853,479.119 140.913,475.157C141.224,474.754 172.426,434.969 205.66,443.873C238.717,452.73 246.023,502.851 246.09,503.34C246.76,508.3 250.995,512.001 256,512.001C261.005,512.001 265.24,508.3 265.91,503.34C265.978,502.835 273.109,452.777 306.34,443.873C339.393,435.016 370.783,474.768 371.087,475.157C374.148,479.117 379.665,480.207 384,477.703C388.335,475.2 390.152,469.878 388.251,465.247C388.058,464.776 369.205,417.86 393.532,393.533C417.731,369.333 464.789,388.066 465.246,388.253C469.871,390.149 475.18,388.335 477.687,384.01C480.194,379.685 479.114,374.168 475.168,371.098C474.766,370.785 435.014,339.398 443.871,306.341C452.728,273.285 502.848,265.979 503.337,265.911C508.292,265.242 511.982,261.015 511.99,256.016C512,251.016 508.307,246.777 503.354,246.092ZM424.554,301.164C418.26,324.654 427.886,346.116 439.079,361.701C419.988,359.8 396.584,362.196 379.39,379.389C362.194,396.585 359.8,419.986 361.701,439.078C346.117,427.887 324.653,418.257 301.164,424.553C277.674,430.847 263.901,449.915 256,467.401C248.1,449.916 234.326,430.847 210.836,424.553C205.681,423.172 200.631,422.558 195.712,422.558C178.215,422.558 162.463,430.343 150.298,439.079C152.199,419.986 149.805,396.585 132.609,379.389C115.413,362.194 92.01,359.796 72.92,361.701C84.113,346.116 93.74,324.654 87.445,301.164C81.15,277.674 62.084,263.9 44.598,256C62.084,248.1 81.151,234.326 87.446,210.836C93.741,187.346 84.114,165.884 72.921,150.299C92.013,152.2 115.416,149.805 132.61,132.611C149.806,115.415 152.2,92.014 150.299,72.922C165.883,84.112 187.345,93.742 210.836,87.447C234.327,81.152 248.1,62.084 256,44.599C263.9,62.084 277.674,81.153 301.164,87.447C306.319,88.828 311.369,89.442 316.288,89.442C333.785,89.44 349.537,81.657 361.702,72.921C359.801,92.014 362.195,115.415 379.391,132.611C396.587,149.806 419.99,152.206 439.08,150.299C427.887,165.884 418.26,187.346 424.555,210.836C430.85,234.326 449.916,248.1 467.402,256C449.916,263.9 430.849,277.674 424.554,301.164Z" style="fill-rule:nonzero;"/>
                    <path d="M256,106C173.29,106 106,173.29 106,256C106,320.546 147.151,377.716 208.399,398.259C213.634,400.018 219.304,397.195 221.06,391.958C222.816,386.723 219.995,381.054 214.759,379.298C161.669,361.49 126,311.94 126,256C126,184.317 184.318,126 256,126C327.682,126 386,184.317 386,256C386,311.94 350.331,361.49 297.241,379.298C292.005,381.054 289.184,386.723 290.94,391.958C292.343,396.14 296.24,398.781 300.419,398.781C301.473,398.781 302.546,398.613 303.601,398.259C364.849,377.716 406,320.546 406,256C406,173.29 338.71,106 256,106Z" style="fill-rule:nonzero;"/>
                </g>
            </g>
        </g>
    </g>
    <g transform="matrix(6.96557e-17,1.13756,-2.09677,1.2839e-16,517.199,61.0427)">
        <path d="M82.565,113.819L82.565,94.811L143.286,94.811L143.286,85.308L178.321,104.315L143.286,123.322L143.286,113.819L82.565,113.819Z"/>
    </g>
    <g transform="matrix(1.63987,0,0,0.930194,-173.627,128.746)">
        <rect x="275.746" y="154.966" width="24.254" height="64.708"/>
    </g>
    <path d="M31.403,601.466C40.192,583.87 50.657,567.254 62.586,551.824C72.976,538.399 84.427,525.862 96.89,514.374C150.37,465.077 221.705,434.907 299.999,434.907C377.64,434.907 448.469,464.547 501.8,513.103C506.514,517.409 511.067,521.901 515.497,526.504C517.064,528.108 518.631,529.737 520.174,531.39C539.477,552.237 555.872,575.807 568.677,601.466L498.63,601.466L497.222,600.072L485.302,600.072L485.798,601.466L442.062,601.466L436.104,600.06L438.165,587.868L452.405,585.635L462.363,571.568L472.654,569.84L481.934,571.21L485.339,571.21L483.476,558.006L472.173,562.56L468.224,552.688L461.672,551.775L460.438,545.001L465.793,539.189L478.491,534.216L481.761,528.367C433.229,485.61 369.619,459.586 299.999,459.586C239.597,459.586 183.711,479.181 138.265,512.288L152.147,512.177L158.329,515.608L169.99,518.125L170.89,522.703L189.437,523.394L186.92,517.446L170.446,516.99L174.309,513.399L172.951,509.043L158.07,509.043L174.309,496.913L189.869,496.913L197.186,506.982L209.328,507.673L216.646,500.566L222.149,503.318L212.068,513.165C212.068,513.165 198.124,513.399 198.803,513.399C199.481,513.399 199.95,522.999 199.95,522.999L216.868,522.53L218.694,517.965L230.355,517.274L231.724,510.413L224.864,509.253L227.146,503.083L232.403,501.491L250.703,502.404L240.621,511.56L242.238,518.643L252.763,520.247L252.072,507.439L262.141,502.17L279.984,500.109L305.836,511.56L305.836,521.395L314.079,523.456L309.957,531.23L298.296,531.23L294.841,540.151L268.163,533.858L289.128,522.691L281.132,515.904L263.055,518.187L261.475,519.816L261.413,519.791L261.13,520.186L255.935,525.59L247.334,526.318L248.025,530.613L251.036,531.859L250.912,533.278L243.916,534.277L243.398,538.337L236.71,538.683L235.5,530.613L223.494,534.265L198.951,548.628L201.715,558.734L208.575,563.201L222.297,565.102L222.297,580.699L228.64,579.675L234.489,567.483L249.086,562.856L249.086,544.149L257.206,538.016L276.826,542.644L275.443,554.996L280.7,554.996L295.113,547.913L295.804,564.139L306.317,570.543L305.873,580.168L295.816,583.599L296.507,586.782L308.625,592.298L308.39,598.924L304.873,599.221C304.849,599.097 304.836,599.035 304.836,599.035L289.548,594.322L288.894,589.423L288.881,589.423L293.348,586.35L293.348,581.883L288.536,580.674L287.339,584.796L278.899,586.091L278.059,585.807L278.059,586.227L275.147,586.671L272.766,581.859L270.014,580.65L264.005,580.65L261.278,582.883L261.278,587.819L266.423,589.534L271.495,590.25L270.36,590.756L265.732,595.889L263.684,593.322L259.217,592.138L249.306,601.466L221.458,601.466L217.25,598.85L214.758,601.466L209.452,601.466L209.452,599.702L200.197,599.702L200.197,601.466L193.431,601.466L194.693,599.702L185.599,599.702L183.968,601.466L60.751,601.466L67.942,592.73L67.497,587.732C64.632,592.224 61.9,596.802 59.3,601.466L31.403,601.466ZM204.812,597.468L204.812,590.941L210.476,596.099L204.812,597.468ZM201.875,591.804L201.875,597.468L185.414,597.468L179.244,595.753L180.787,591.804L188.696,588.534L199.506,588.534L199.506,591.804L201.875,591.804ZM163.635,571.21L170.841,567.779L177.356,569.334L175.111,578.083L168.077,580.316L163.635,571.21ZM500.122,559.561L500.171,546.16C504.885,551.158 509.426,556.304 513.77,561.634L508.365,569.68L489.473,569.507L488.288,565.571L500.122,559.561ZM147.828,539.645C147.828,539.645 153.837,538.621 154.355,538.621C154.874,538.621 154.355,544.618 154.355,544.618L140.807,545.469L138.228,542.385L147.828,539.645ZM138.228,526.257L138.228,525.751L144.237,525.751L144.755,523.69L154.59,523.69L154.59,527.984L151.764,531.76L138.215,531.76L138.228,526.257Z" style="fill-rule:nonzero;"/>
    <g transform="matrix(1.12605,-1.12605,0.74053,0.74053,137.887,340.401)">
        <path d="M82.565,109.067L82.565,99.563L165.821,99.563L165.821,85.308L178.321,104.315L165.821,123.322L165.821,109.067L82.565,109.067Z"/>
    </g>
    <g transform="matrix(-0.949962,0.254541,-0.271053,-1.01158,405.42,412.076)">
        <path d="M82.565,110.651L82.565,97.979L158.081,97.979L158.081,85.308L178.321,104.315L158.081,123.322L158.081,110.651L82.565,110.651Z"/>
    </g>
    <g transform="matrix(6.94988e-17,1.21191,-1.04727,-1.51705e-16,407.673,219.609)">
        <path d="M82.565,109.067L82.565,99.563L161.896,99.563L161.896,85.308L178.321,104.315L161.896,123.322L161.896,109.067L82.565,109.067Z"/>
    </g>
    <g transform="matrix(0.887192,0.424392,-0.45192,0.944741,274.514,204.478)">
        <path d="M82.565,109.067L82.565,99.563L158.081,99.563L158.081,85.308L178.321,104.315L158.081,123.322L158.081,109.067L82.565,109.067Z"/>
    </g>
    <g transform="matrix(1,0,0,0.386578,0,195.636)">
        <rect x="298.475" y="349.542" width="19.858" height="35.258"/>
    </g>
    <g transform="matrix(0.983459,-0.00514761,0.00273905,0.5233,92.8608,371.331)">
        <path d="M82.565,109.067L82.565,99.563L168.207,99.563L168.207,85.308L178.321,104.315L168.207,123.322L168.207,109.067L82.565,109.067Z"/>
    </g>
    <g transform="matrix(1,0,0,1,-45.2043,6.46353)">
        <text x="183.351px" y="170.727px" style="font-family:'CMUSerif-Roman', 'CMU Serif';font-weight:500;font-size:18px;">Radiación Solar</text>
        <text x="196.675px" y="188.727px" style="font-family:'CMUSerif-Roman', 'CMU Serif';font-weight:500;font-size:18px;">Extraterrestre</text>
    </g>
    <g transform="matrix(1,0,0,1,276.82,26.6173)">
        <text x="135.069px" y="170.727px" style="font-family:'CMUSerif-Roman', 'CMU Serif';font-weight:500;font-size:18px;">Reﬂejada</text>
    </g>
    <g transform="matrix(1,0,0,1,264.658,207.234)">
        <text x="135.069px" y="170.727px" style="font-family:'CMUSerif-Roman', 'CMU Serif';font-weight:500;font-size:16px;">Moléculas</text>
        <text x="135.069px" y="186.727px" style="font-family:'CMUSerif-Roman', 'CMU Serif';font-weight:500;font-size:16px;">disp<tspan x="163.991px " y="186.727px ">e</tspan>rsas de</text>
        <text x="135.069px" y="202.727px" style="font-family:'CMUSerif-Roman', 'CMU Serif';font-weight:500;font-size:16px;">p<tspan x="144.389px " y="202.727px ">o</tspan>lv<tspan x="164.803px " y="202.727px ">o</tspan></text>
    </g>
    <g transform="matrix(1,0,0,1,-20.1714,177.883)">
        <text x="147.631px" y="170.727px" style="font-family:'CMUSerif-Roman', 'CMU Serif';font-weight:500;font-size:16px;">Absorbida</text>
        <text x="151.077px" y="186.727px" style="font-family:'CMUSerif-Roman', 'CMU Serif';font-weight:500;font-size:16px;">H</text>
        <text x="163.077px" y="190.727px" style="font-family:'CMUSerif-Roman', 'CMU Serif';font-weight:500;font-size:10px;">2</text>
        <text x="168.077px" y="186.727px" style="font-family:'CMUSerif-Roman', 'CMU Serif';font-weight:500;font-size:16px;">O, CO</text>
        <text x="214.233px" y="190.727px" style="font-family:'CMUSerif-Roman', 'CMU Serif';font-weight:500;font-size:10px;">2</text>
    </g>
    <g transform="matrix(1,0,0,1,-20.2574,260.57)">
        <text x="135.069px" y="170.727px" style="font-family:'CMUSerif-Roman', 'CMU Serif';font-weight:500;font-size:18px;">Difusa</text>
    </g>
    <g transform="matrix(1,0,0,1,90.7235,225.281)">
        <text x="135.069px" y="170.727px" style="font-family:'CMUSerif-Roman', 'CMU Serif';font-weight:500;font-size:18px;">Directa</text>
    </g>
</svg>
