<?xml version="1.0" encoding="UTF-8" standalone="no"?>
<!DOCTYPE svg PUBLIC "-//W3C//DTD SVG 1.1//EN" "http://www.w3.org/Graphics/SVG/1.1/DTD/svg11.dtd">
<svg width="100%" height="100%" viewBox="0 0 550 525" version="1.1" xmlns="http://www.w3.org/2000/svg" xmlns:xlink="http://www.w3.org/1999/xlink" xml:space="preserve" xmlns:serif="http://www.serif.com/" style="fill-rule:evenodd;clip-rule:evenodd;stroke-linecap:round;stroke-linejoin:round;stroke-miterlimit:1.5;">
    <g transform="matrix(1,0,0,1,-33.1243,-42.8032)">
        <circle cx="126.933" cy="145.376" r="21.13" style="fill:rgb(172,172,172);"/>
    </g>
    <g transform="matrix(1,0,0,1,-127.316,-96.9154)">
        <path d="M183.316,433.578L307.335,373.448L394.222,433.578L256.34,503.574L183.316,433.578Z" style="fill:rgb(201,201,201);"/>
    </g>
    <g transform="matrix(1,0,0,1,-34.094,-40.5597)">
        <g transform="matrix(1,-0,-0,1,34.094,40.5597)">
            <path d="M133.714,330.538L137.017,337.062L140.255,330.505C138.628,332.148 135.358,332.165 133.714,330.538Z"/>
            <path d="M167.234,222.886L173.56,219.216L172.701,226.478L171.764,221.949L167.234,222.886Z"/>
            <path d="M136.991,331.83C137.298,316.481 140.931,269.649 171.764,221.949" style="fill:none;stroke:black;stroke-width:2.18px;"/>
        </g>
    </g>
    <g transform="matrix(1,0,0,1,-34.094,-40.5597)">
        <g transform="matrix(1,-0,-0,1,34.094,40.5597)">
            <path d="M177.01,208.248L176.047,215.498L182.424,211.918C180.153,212.354 177.446,210.52 177.01,208.248Z"/>
            <path d="M258.718,145.186L265.906,146.53L260.518,151.474L262.762,147.43L258.718,145.186Z"/>
            <path d="M178.983,211.166C188.056,198.4 217.771,160.97 262.762,147.43" style="fill:none;stroke:black;stroke-width:2.18px;"/>
        </g>
    </g>
    <g transform="matrix(0.476164,0,0,0.476164,-3.86067,239.536)">
        <text x="269.574px" y="60.363px" style="font-family:'CMUSerif-Italic', 'CMU Serif';font-weight:500;font-style:italic;font-size:42.002px;">α</text>
    </g>
    <g transform="matrix(0.476164,0,0,0.476164,68.6143,131.415)">
        <text x="269.574px" y="60.363px" style="font-family:'Constantia-Italic', 'Constantia', serif;font-style:italic;font-size:42.002px;">θ</text>
    </g>
    <g transform="matrix(0.476164,0,0,0.476164,39.6301,395.378)">
        <text x="269.574px" y="60.363px" style="font-family:'CMUSerif-Italic', 'CMU Serif';font-weight:500;font-style:italic;font-size:42.002px;">γ</text>
    </g>
    <g transform="matrix(0.476164,0,0,0.476164,-6.73994,342.871)">
        <text x="269.574px" y="60.363px" style="font-family:'CMUSerif-Italic', 'CMU Serif';font-weight:500;font-style:italic;font-size:42.002px;">γ</text>
    </g>
    <g transform="matrix(0.476164,0,0,0.476164,3.82021,348.813)">
        <text x="269.574px" y="60.363px" style="font-family:'CMUSerif-Roman', 'CMU Serif';font-weight:500;font-size:20px;">S</text>
    </g>
    <g transform="matrix(0.476164,0,0,0.476164,9.89943,243.666)">
        <text x="269.574px" y="60.363px" style="font-family:'CMUSerif-Roman', 'CMU Serif';font-weight:500;font-size:20px;">S</text>
    </g>
    <g transform="matrix(0.476164,0,0,0.476164,82.9662,134.863)">
        <text x="269.574px" y="60.363px" style="font-family:'CMUSerif-Roman', 'CMU Serif';font-weight:500;font-size:20px;">Z</text>
    </g>
    <g transform="matrix(1,0,0,1,86.3071,190.405)">
        <text x="269.574px" y="60.363px" style="font-family:'CMUSerif-Italic', 'CMU Serif';font-weight:500;font-style:italic;font-size:20px;">β</text>
    </g>
    <g transform="matrix(1,0,0,1,-34.094,-40.5597)">
        <path d="M347.146,384.098L423.491,286.399" style="fill:none;stroke:black;stroke-width:2.18px;stroke-dasharray:4.36,4.36,0,0;"/>
    </g>
    <g transform="matrix(1,0,0,1,-34.094,-40.5597)">
        <path d="M292.159,390.461L309.259,394.063L317.013,378.264" style="fill:none;stroke:black;stroke-width:2.18px;"/>
    </g>
    <g transform="matrix(1,0,0,1,-34.094,-40.5597)">
        <path d="M284.557,319.504L372.493,338.211" style="fill:none;stroke:black;stroke-width:2.18px;"/>
    </g>
    <g transform="matrix(1,0,0,1,-34.094,-40.5597)">
        <path d="M256.897,364.912L346.272,384.098L377.13,331.656L287.434,313.589L256.897,364.912Z" style="fill:rgb(172,172,172);stroke:black;stroke-width:2.18px;"/>
    </g>
    <g transform="matrix(1,0,0,1,-107.951,216.357)">
        <text x="269.574px" y="60.363px" style="font-family:'CMUSerif-Roman', 'CMU Serif';font-weight:500;font-size:20px;">O</text>
    </g>
    <g transform="matrix(1,0,0,1,-160.854,357.97)">
        <text x="269.574px" y="60.363px" style="font-family:'CMUSerif-Roman', 'CMU Serif';font-weight:500;font-size:20px;">S</text>
    </g>
    <g transform="matrix(1,0,0,1,87.5077,349.988)">
        <text x="269.574px" y="60.363px" style="font-family:'CMUSerif-Roman', 'CMU Serif';font-weight:500;font-size:20px;">E</text>
    </g>
    <g transform="matrix(1,0,0,1,150.088,209.585)">
        <text x="269.574px" y="60.363px" style="font-family:'CMUSerif-Roman', 'CMU Serif';font-weight:500;font-size:20px;">N</text>
    </g>
    <g transform="matrix(1,0,0,1,-34.094,-40.5597)">
        <path d="M145.197,378.657L294.5,378.657" style="fill:none;stroke:black;stroke-width:2.18px;stroke-dasharray:4.36,4.36,0,0;"/>
    </g>
    <g transform="matrix(1,0,0,1,17.549,29.9541)">
        <text x="269.574px" y="60.363px" style="font-family:'CMUSerif-Roman', 'CMU Serif';font-weight:500;font-size:14px;">Normal de la</text>
        <text x="269.574px" y="74.363px" style="font-family:'CMUSerif-Roman', 'CMU Serif';font-weight:500;font-size:14px;">Sup<tspan x="293.261px " y="74.363px ">e</tspan>rﬁcie Horizon<tspan x="381.102px " y="74.363px ">t</tspan>al</text>
    </g>
    <g transform="matrix(-0.232337,0.867092,-2.07289,-0.55543,603.984,93.9654)">
        <g transform="matrix(-0.28832,-0.450102,1.07603,-0.120604,73.0316,283.187)">
            <path d="M263.51,328.573L264.842,335.764L258.29,332.515C260.581,332.834 263.191,330.863 263.51,328.573Z"/>
            <path d="M118.377,141.795C118.377,141.795 240.388,303.378 261.689,331.588" style="fill:none;stroke:black;stroke-width:2.18px;"/>
        </g>
    </g>
    <g transform="matrix(1,0,0,1,-34.094,-40.5597)">
        <path d="M162.451,447.244L448.149,303.274" style="fill:none;stroke:black;stroke-width:2.18px;"/>
    </g>
    <g transform="matrix(1,0,0,-0.332031,53.6863,401.48)">
        <path d="M126.333,376.312L296.631,22.534" style="fill:none;stroke:black;stroke-width:2.93px;"/>
    </g>
    <g transform="matrix(1,0,0,2.39062,54.6863,-146.995)">
        <g transform="matrix(1,-0,-0,0.418301,-54.6863,61.4882)">
            <path d="M263.636,43.4L266.906,36.859L270.177,43.4C268.541,41.764 265.271,41.764 263.636,43.4Z"/>
            <path d="M266.906,335.471L266.906,42.091" style="fill:none;stroke:black;stroke-width:2.18px;"/>
        </g>
    </g>
    <g transform="matrix(1,0,0,1,-34.094,-40.5597)">
        <path d="M356.159,214.014L581.094,356.489L248.327,551.661" style="fill:none;stroke:black;stroke-width:2.18px;"/>
    </g>
    <g transform="matrix(1,0,0,1,-28.5018,-32.3625)">
        <text x="269.574px" y="60.363px" style="font-family:'CMUSerif-Roman', 'CMU Serif';font-weight:500;font-size:20px;">Cenit</text>
    </g>
    <g transform="matrix(1,0,0,1,-34.094,-40.5597)">
        <path d="M299.019,378.657L232.134,481.333" style="fill:none;stroke:black;stroke-width:2.18px;stroke-dasharray:4.36,4.36,0,0;"/>
    </g>
    <g transform="matrix(1,0,0,1,-34.094,-40.5597)">
        <path d="M145.197,370.575L145.197,182.354" style="fill:none;stroke:black;stroke-width:2.18px;stroke-dasharray:4.36,4.36,0,0;"/>
    </g>
    <g transform="matrix(1,0,0,1,-34.094,-40.5597)">
        <path d="M280.08,326.539L368.975,344.926" style="fill:none;stroke:black;stroke-width:2.18px;"/>
    </g>
    <g transform="matrix(1,0,0,1,-34.094,-40.5597)">
        <path d="M277.042,332.455L365.778,351.481" style="fill:none;stroke:black;stroke-width:2.18px;"/>
    </g>
    <g transform="matrix(1,0,0,1,-34.094,-40.5597)">
        <path d="M271.926,339.65L361.141,358.356" style="fill:none;stroke:black;stroke-width:2.18px;"/>
    </g>
    <g transform="matrix(1,0,0,1,-34.094,-40.5597)">
        <path d="M268.728,346.365L358.263,364.752" style="fill:none;stroke:black;stroke-width:2.18px;"/>
    </g>
    <g transform="matrix(1,0,0,1,-34.094,-40.5597)">
        <path d="M353.946,371.627L264.571,351.481" style="fill:none;stroke:black;stroke-width:2.18px;"/>
    </g>
    <g transform="matrix(1,0,0,1,-34.094,-40.5597)">
        <path d="M349.949,377.223L260.734,358.356" style="fill:none;stroke:black;stroke-width:2.18px;"/>
    </g>
    <g transform="matrix(1,0,0,1,-34.094,-40.5597)">
        <path d="M414.097,273.608L347.146,384.098" style="fill:none;stroke:black;stroke-width:2.18px;stroke-dasharray:4.36,4.36,0,0;"/>
    </g>
    <g transform="matrix(1,0,0,1,-34.094,-40.5597)">
        <g transform="matrix(1,-0,-0,1,34.094,40.5597)">
            <path d="M148.671,387.398L155.263,390.564L153.841,383.391C153.55,385.685 150.965,387.689 148.671,387.398Z"/>
            <path d="M134.765,347.398L136.967,340.424L141.225,346.37L137.481,343.654L134.765,347.398Z"/>
            <path d="M152.057,386.428C148.122,380.488 141.48,367.529 137.481,343.654" style="fill:none;stroke:black;stroke-width:2.18px;"/>
        </g>
    </g>
    <g transform="matrix(1,0,0,1,-34.094,-40.5597)">
        <g transform="matrix(1,-0,-0,1,34.094,40.5597)">
            <path d="M165.229,395.629L158.068,394.146L161.177,400.765C160.906,398.468 162.932,395.9 165.229,395.629Z"/>
            <path d="M207.554,408.831L214.347,411.541L208.104,415.349L211.088,411.815L207.554,408.831Z"/>
            <path d="M162.176,397.387C169.817,402.873 187.594,413.263 211.088,411.815" style="fill:none;stroke:black;stroke-width:2.18px;"/>
        </g>
    </g>
    <g id="sun-2.svg" transform="matrix(0.148112,0,0,0.148112,93.8086,102.573)">
        <g transform="matrix(1,0,0,1,-256,-256)">
            <clipPath id="_clip1">
                <rect x="0" y="0" width="512" height="512"/>
            </clipPath>
            <g clip-path="url(#_clip1)">
                <g>
                    <circle cx="256" cy="396" r="10"/>
                    <path d="M503.354,246.092C502.849,246.023 452.729,238.716 443.872,205.66C435.015,172.603 474.767,141.216 475.156,140.913C479.117,137.852 480.205,132.335 477.702,128C475.2,123.665 469.877,121.851 465.246,123.748C464.775,123.942 417.858,142.795 393.532,118.468C369.333,94.269 388.065,47.211 388.251,46.754C390.151,42.123 388.334,36.801 384,34.298C379.666,31.795 374.147,32.883 371.087,36.844C370.776,37.246 339.569,77.027 306.34,68.128C273.283,59.271 265.977,9.15 265.907,8.646C265.231,3.693 261,0 256,0C250.995,0 246.76,3.701 246.09,8.661C246.022,9.166 238.891,59.224 205.66,68.128C172.607,76.986 141.216,37.233 140.913,36.844C137.852,32.884 132.334,31.794 128,34.298C123.665,36.801 121.848,42.123 123.749,46.754C123.942,47.225 142.795,94.141 118.468,118.468C94.267,142.667 47.211,123.934 46.754,123.748C42.128,121.851 36.819,123.666 34.313,127.991C31.807,132.316 32.886,137.833 36.832,140.903C37.234,141.216 76.986,172.603 68.129,205.66C59.27,238.716 9.15,246.022 8.662,246.09C3.707,246.759 0.017,250.986 0.009,255.985C0.001,260.985 3.694,265.223 8.646,265.909C9.151,265.978 59.271,273.285 68.128,306.341C76.985,339.398 37.233,370.785 36.844,371.088C32.883,374.149 31.795,379.666 34.298,384.001C36.8,388.335 42.124,390.151 46.754,388.253C47.225,388.059 94.142,369.206 118.468,393.533C142.667,417.732 123.935,464.79 123.749,465.247C121.849,469.878 123.666,475.2 128,477.703C132.336,480.207 137.853,479.119 140.913,475.157C141.224,474.754 172.426,434.969 205.66,443.873C238.717,452.73 246.023,502.851 246.09,503.34C246.76,508.3 250.995,512.001 256,512.001C261.005,512.001 265.24,508.3 265.91,503.34C265.978,502.835 273.109,452.777 306.34,443.873C339.393,435.016 370.783,474.768 371.087,475.157C374.148,479.117 379.665,480.207 384,477.703C388.335,475.2 390.152,469.878 388.251,465.247C388.058,464.776 369.205,417.86 393.532,393.533C417.731,369.333 464.789,388.066 465.246,388.253C469.871,390.149 475.18,388.335 477.687,384.01C480.194,379.685 479.114,374.168 475.168,371.098C474.766,370.785 435.014,339.398 443.871,306.341C452.728,273.285 502.848,265.979 503.337,265.911C508.292,265.242 511.982,261.015 511.99,256.016C512,251.016 508.307,246.777 503.354,246.092ZM424.554,301.164C418.26,324.654 427.886,346.116 439.079,361.701C419.988,359.8 396.584,362.196 379.39,379.389C362.194,396.585 359.8,419.986 361.701,439.078C346.117,427.887 324.653,418.257 301.164,424.553C277.674,430.847 263.901,449.915 256,467.401C248.1,449.916 234.326,430.847 210.836,424.553C205.681,423.172 200.631,422.558 195.712,422.558C178.215,422.558 162.463,430.343 150.298,439.079C152.199,419.986 149.805,396.585 132.609,379.389C115.413,362.194 92.01,359.796 72.92,361.701C84.113,346.116 93.74,324.654 87.445,301.164C81.15,277.674 62.084,263.9 44.598,256C62.084,248.1 81.151,234.326 87.446,210.836C93.741,187.346 84.114,165.884 72.921,150.299C92.013,152.2 115.416,149.805 132.61,132.611C149.806,115.415 152.2,92.014 150.299,72.922C165.883,84.112 187.345,93.742 210.836,87.447C234.327,81.152 248.1,62.084 256,44.599C263.9,62.084 277.674,81.153 301.164,87.447C306.319,88.828 311.369,89.442 316.288,89.442C333.785,89.44 349.537,81.657 361.702,72.921C359.801,92.014 362.195,115.415 379.391,132.611C396.587,149.806 419.99,152.206 439.08,150.299C427.887,165.884 418.26,187.346 424.555,210.836C430.85,234.326 449.916,248.1 467.402,256C449.916,263.9 430.849,277.674 424.554,301.164Z" style="fill-rule:nonzero;"/>
                    <path d="M256,106C173.29,106 106,173.29 106,256C106,320.546 147.151,377.716 208.399,398.259C213.634,400.018 219.304,397.195 221.06,391.958C222.816,386.723 219.995,381.054 214.759,379.298C161.669,361.49 126,311.94 126,256C126,184.317 184.318,126 256,126C327.682,126 386,184.317 386,256C386,311.94 350.331,361.49 297.241,379.298C292.005,381.054 289.184,386.723 290.94,391.958C292.343,396.14 296.24,398.781 300.419,398.781C301.473,398.781 302.546,398.613 303.601,398.259C364.849,377.716 406,320.546 406,256C406,173.29 338.71,106 256,106Z" style="fill-rule:nonzero;"/>
                </g>
            </g>
        </g>
    </g>
</svg>
