<?xml version="1.0" encoding="utf-8" standalone="no"?>
<!DOCTYPE svg PUBLIC "-//W3C//DTD SVG 1.1//EN"
  "http://www.w3.org/Graphics/SVG/1.1/DTD/svg11.dtd">
<svg height="288pt" version="1.1" viewBox="0 0 432 288" width="432pt" xmlns="http://www.w3.org/2000/svg" xmlns:xlink="http://www.w3.org/1999/xlink">
 <metadata>
  <rdf:RDF xmlns:cc="http://creativecommons.org/ns#" xmlns:dc="http://purl.org/dc/elements/1.1/" xmlns:rdf="http://www.w3.org/1999/02/22-rdf-syntax-ns#">
   <cc:Work>
    <dc:type rdf:resource="http://purl.org/dc/dcmitype/StillImage"/>
    <dc:date>2022-06-02T22:45:50.355288</dc:date>
    <dc:format>image/svg+xml</dc:format>
    <dc:creator>
     <cc:Agent>
      <dc:title>Matplotlib v3.4.3, https://matplotlib.org/</dc:title>
     </cc:Agent>
    </dc:creator>
   </cc:Work>
  </rdf:RDF>
 </metadata>
 <defs>
  <style type="text/css">*{stroke-linecap:butt;stroke-linejoin:round;}</style>
 </defs>
 <g id="figure_1">
  <g id="patch_1">
   <path d="M 0 288 
L 432 288 
L 432 0 
L 0 0 
z
" style="fill:none;"/>
  </g>
  <g id="axes_1">
   <g id="patch_2">
    <path d="M 54 252 
L 388.8 252 
L 388.8 34.56 
L 54 34.56 
z
" style="fill:none;"/>
   </g>
   <g id="matplotlib.axis_1">
    <g id="xtick_1">
     <g id="line2d_1">
      <path clip-path="url(#pa9bd93411c)" d="M 68.379715 252 
L 68.379715 34.56 
" style="fill:none;stroke:#b0b0b0;stroke-linecap:square;stroke-width:0.8;"/>
     </g>
     <g id="line2d_2">
      <defs>
       <path d="M 0 0 
L 0 3.5 
" id="mbd2952cd03" style="stroke:#000000;stroke-width:0.8;"/>
      </defs>
      <g>
       <use style="stroke:#000000;stroke-width:0.8;" x="68.379715" xlink:href="#mbd2952cd03" y="252"/>
      </g>
     </g>
     <g id="text_1">
      <!-- 0 -->
      <g transform="translate(65.879715 265.939062)scale(0.1 -0.1)">
       <defs>
        <path d="M 250 2047 
Q 250 2988 488 3500 
Q 819 4263 1600 4263 
Q 1766 4263 1939 4217 
Q 2113 4172 2333 4000 
Q 2553 3828 2688 3547 
Q 2944 3003 2944 2047 
Q 2944 1113 2706 603 
Q 2359 -141 1594 -141 
Q 1306 -141 1014 6 
Q 722 153 538 506 
Q 250 1034 250 2047 
z
M 781 2125 
Q 781 1159 850 775 
Q 928 359 1142 179 
Q 1356 0 1594 0 
Q 1850 0 2064 192 
Q 2278 384 2344 800 
Q 2416 1209 2413 2125 
Q 2413 3016 2350 3372 
Q 2266 3788 2042 3955 
Q 1819 4122 1594 4122 
Q 1509 4122 1420 4097 
Q 1331 4072 1203 4000 
Q 1075 3928 976 3750 
Q 878 3572 831 3303 
Q 781 2956 781 2125 
z
" id="CMUSerif-Roman-30" transform="scale(0.015625)"/>
       </defs>
       <use xlink:href="#CMUSerif-Roman-30"/>
      </g>
     </g>
    </g>
    <g id="xtick_2">
     <g id="line2d_3">
      <path clip-path="url(#pa9bd93411c)" d="M 110.30308 252 
L 110.30308 34.56 
" style="fill:none;stroke:#b0b0b0;stroke-linecap:square;stroke-width:0.8;"/>
     </g>
     <g id="line2d_4">
      <g>
       <use style="stroke:#000000;stroke-width:0.8;" x="110.30308" xlink:href="#mbd2952cd03" y="252"/>
      </g>
     </g>
     <g id="text_2">
      <!-- 50 -->
      <g transform="translate(105.30308 265.939062)scale(0.1 -0.1)">
       <defs>
        <path d="M 319 1031 
Q 319 1222 422 1295 
Q 525 1369 634 1369 
Q 781 1369 867 1276 
Q 953 1184 953 1056 
Q 953 928 867 836 
Q 781 744 634 744 
Q 563 744 525 756 
Q 609 463 867 250 
Q 1125 38 1466 38 
Q 1894 38 2150 453 
Q 2303 722 2303 1331 
Q 2303 1869 2188 2138 
Q 2009 2547 1644 2547 
Q 1125 2547 819 2100 
Q 781 2044 738 2041 
Q 675 2041 661 2077 
Q 647 2113 647 2209 
L 647 4103 
Q 647 4256 709 4256 
Q 734 4256 788 4238 
Q 1191 4059 1638 4056 
Q 2097 4056 2509 4244 
Q 2541 4263 2559 4263 
Q 2622 4263 2625 4191 
Q 2625 4166 2573 4092 
Q 2522 4019 2412 3923 
Q 2303 3828 2162 3737 
Q 2022 3647 1817 3586 
Q 1613 3525 1388 3525 
Q 1119 3525 844 3609 
L 844 2363 
Q 1175 2688 1656 2688 
Q 2169 2688 2522 2275 
Q 2875 1863 2875 1288 
Q 2875 684 2458 271 
Q 2041 -141 1478 -141 
Q 966 -141 642 225 
Q 319 591 319 1031 
z
" id="CMUSerif-Roman-35" transform="scale(0.015625)"/>
       </defs>
       <use xlink:href="#CMUSerif-Roman-35"/>
       <use x="50" xlink:href="#CMUSerif-Roman-30"/>
      </g>
     </g>
    </g>
    <g id="xtick_3">
     <g id="line2d_5">
      <path clip-path="url(#pa9bd93411c)" d="M 152.226446 252 
L 152.226446 34.56 
" style="fill:none;stroke:#b0b0b0;stroke-linecap:square;stroke-width:0.8;"/>
     </g>
     <g id="line2d_6">
      <g>
       <use style="stroke:#000000;stroke-width:0.8;" x="152.226446" xlink:href="#mbd2952cd03" y="252"/>
      </g>
     </g>
     <g id="text_3">
      <!-- 100 -->
      <g transform="translate(144.726446 265.939062)scale(0.1 -0.1)">
       <defs>
        <path d="M 569 3653 
L 569 3853 
Q 1338 3853 1734 4263 
Q 1844 4263 1862 4238 
Q 1881 4213 1881 4097 
L 1881 506 
Q 1881 316 1975 256 
Q 2069 197 2478 197 
L 2681 197 
L 2681 0 
Q 2456 19 1643 19 
Q 831 19 609 0 
L 609 197 
L 813 197 
Q 1216 197 1312 255 
Q 1409 313 1409 506 
L 1409 3822 
Q 1075 3653 569 3653 
z
" id="CMUSerif-Roman-31" transform="scale(0.015625)"/>
       </defs>
       <use xlink:href="#CMUSerif-Roman-31"/>
       <use x="50" xlink:href="#CMUSerif-Roman-30"/>
       <use x="100" xlink:href="#CMUSerif-Roman-30"/>
      </g>
     </g>
    </g>
    <g id="xtick_4">
     <g id="line2d_7">
      <path clip-path="url(#pa9bd93411c)" d="M 194.149812 252 
L 194.149812 34.56 
" style="fill:none;stroke:#b0b0b0;stroke-linecap:square;stroke-width:0.8;"/>
     </g>
     <g id="line2d_8">
      <g>
       <use style="stroke:#000000;stroke-width:0.8;" x="194.149812" xlink:href="#mbd2952cd03" y="252"/>
      </g>
     </g>
     <g id="text_4">
      <!-- 150 -->
      <g transform="translate(186.649812 265.939062)scale(0.1 -0.1)">
       <use xlink:href="#CMUSerif-Roman-31"/>
       <use x="50" xlink:href="#CMUSerif-Roman-35"/>
       <use x="100" xlink:href="#CMUSerif-Roman-30"/>
      </g>
     </g>
    </g>
    <g id="xtick_5">
     <g id="line2d_9">
      <path clip-path="url(#pa9bd93411c)" d="M 236.073178 252 
L 236.073178 34.56 
" style="fill:none;stroke:#b0b0b0;stroke-linecap:square;stroke-width:0.8;"/>
     </g>
     <g id="line2d_10">
      <g>
       <use style="stroke:#000000;stroke-width:0.8;" x="236.073178" xlink:href="#mbd2952cd03" y="252"/>
      </g>
     </g>
     <g id="text_5">
      <!-- 200 -->
      <g transform="translate(228.573178 265.939062)scale(0.1 -0.1)">
       <defs>
        <path d="M 319 0 
Q 319 116 330 150 
Q 341 184 391 238 
L 1619 1606 
Q 2291 2363 2291 3022 
Q 2291 3450 2067 3756 
Q 1844 4063 1434 4063 
Q 1153 4063 915 3891 
Q 678 3719 569 3413 
Q 588 3419 653 3419 
Q 813 3419 902 3319 
Q 991 3219 991 3084 
Q 991 2913 880 2830 
Q 769 2747 659 2747 
Q 616 2747 558 2756 
Q 500 2766 409 2855 
Q 319 2944 319 3103 
Q 319 3550 658 3906 
Q 997 4263 1516 4263 
Q 2103 4263 2489 3914 
Q 2875 3566 2875 3022 
Q 2875 2831 2817 2657 
Q 2759 2484 2682 2350 
Q 2606 2216 2400 2000 
Q 2194 1784 2028 1631 
Q 1863 1478 1491 1153 
L 813 494 
L 1966 494 
Q 2528 494 2572 544 
Q 2634 634 2713 1113 
L 2875 1113 
L 2694 0 
L 319 0 
z
" id="CMUSerif-Roman-32" transform="scale(0.015625)"/>
       </defs>
       <use xlink:href="#CMUSerif-Roman-32"/>
       <use x="50" xlink:href="#CMUSerif-Roman-30"/>
       <use x="100" xlink:href="#CMUSerif-Roman-30"/>
      </g>
     </g>
    </g>
    <g id="xtick_6">
     <g id="line2d_11">
      <path clip-path="url(#pa9bd93411c)" d="M 277.996544 252 
L 277.996544 34.56 
" style="fill:none;stroke:#b0b0b0;stroke-linecap:square;stroke-width:0.8;"/>
     </g>
     <g id="line2d_12">
      <g>
       <use style="stroke:#000000;stroke-width:0.8;" x="277.996544" xlink:href="#mbd2952cd03" y="252"/>
      </g>
     </g>
     <g id="text_6">
      <!-- 250 -->
      <g transform="translate(270.496544 265.939062)scale(0.1 -0.1)">
       <use xlink:href="#CMUSerif-Roman-32"/>
       <use x="50" xlink:href="#CMUSerif-Roman-35"/>
       <use x="100" xlink:href="#CMUSerif-Roman-30"/>
      </g>
     </g>
    </g>
    <g id="xtick_7">
     <g id="line2d_13">
      <path clip-path="url(#pa9bd93411c)" d="M 319.91991 252 
L 319.91991 34.56 
" style="fill:none;stroke:#b0b0b0;stroke-linecap:square;stroke-width:0.8;"/>
     </g>
     <g id="line2d_14">
      <g>
       <use style="stroke:#000000;stroke-width:0.8;" x="319.91991" xlink:href="#mbd2952cd03" y="252"/>
      </g>
     </g>
     <g id="text_7">
      <!-- 300 -->
      <g transform="translate(312.41991 265.939062)scale(0.1 -0.1)">
       <defs>
        <path d="M 269 863 
Q 269 1053 378 1143 
Q 488 1234 628 1234 
Q 775 1234 879 1139 
Q 984 1044 984 878 
Q 984 700 861 600 
Q 738 500 563 525 
Q 716 269 998 153 
Q 1281 38 1544 38 
Q 1819 38 2042 275 
Q 2266 513 2266 1094 
Q 2266 1588 2073 1872 
Q 1881 2156 1503 2156 
L 1222 2156 
Q 1125 2156 1097 2165 
Q 1069 2175 1069 2228 
Q 1069 2291 1166 2303 
Q 1263 2303 1416 2322 
Q 1788 2334 1984 2656 
Q 2163 2956 2163 3384 
Q 2163 3775 1977 3939 
Q 1791 4103 1550 4103 
Q 1325 4103 1078 4009 
Q 831 3916 697 3706 
Q 1094 3706 1094 3384 
Q 1094 3244 1005 3151 
Q 916 3059 769 3059 
Q 628 3059 534 3148 
Q 441 3238 441 3391 
Q 441 3756 767 4009 
Q 1094 4263 1575 4263 
Q 2050 4263 2401 4013 
Q 2753 3763 2753 3378 
Q 2753 3000 2503 2690 
Q 2253 2381 1856 2253 
Q 2344 2156 2634 1826 
Q 2925 1497 2925 1094 
Q 2925 594 2531 226 
Q 2138 -141 1563 -141 
Q 1031 -141 650 146 
Q 269 434 269 863 
z
" id="CMUSerif-Roman-33" transform="scale(0.015625)"/>
       </defs>
       <use xlink:href="#CMUSerif-Roman-33"/>
       <use x="50" xlink:href="#CMUSerif-Roman-30"/>
       <use x="100" xlink:href="#CMUSerif-Roman-30"/>
      </g>
     </g>
    </g>
    <g id="xtick_8">
     <g id="line2d_15">
      <path clip-path="url(#pa9bd93411c)" d="M 361.843276 252 
L 361.843276 34.56 
" style="fill:none;stroke:#b0b0b0;stroke-linecap:square;stroke-width:0.8;"/>
     </g>
     <g id="line2d_16">
      <g>
       <use style="stroke:#000000;stroke-width:0.8;" x="361.843276" xlink:href="#mbd2952cd03" y="252"/>
      </g>
     </g>
     <g id="text_8">
      <!-- 350 -->
      <g transform="translate(354.343276 265.939062)scale(0.1 -0.1)">
       <use xlink:href="#CMUSerif-Roman-33"/>
       <use x="50" xlink:href="#CMUSerif-Roman-35"/>
       <use x="100" xlink:href="#CMUSerif-Roman-30"/>
      </g>
     </g>
    </g>
    <g id="text_9">
     <!-- Número de Días -->
     <g transform="translate(186.057813 278.817187)scale(0.1 -0.1)">
      <defs>
       <path d="M 213 0 
L 213 197 
Q 444 197 591 242 
Q 738 288 791 373 
Q 844 459 858 517 
Q 872 575 872 672 
L 872 4013 
Q 872 4103 848 4125 
Q 825 4147 716 4159 
Q 525 4172 397 4172 
L 213 4172 
L 213 4372 
L 1300 4372 
Q 1391 4372 1416 4359 
Q 1441 4347 1484 4288 
L 3744 966 
L 3744 3700 
Q 3744 3797 3731 3853 
Q 3719 3909 3664 3996 
Q 3609 4084 3462 4128 
Q 3316 4172 3084 4172 
L 3084 4372 
Q 3756 4353 3832 4353 
Q 3909 4353 4581 4372 
L 4581 4172 
Q 4350 4172 4203 4128 
Q 4056 4084 4003 3996 
Q 3950 3909 3936 3851 
Q 3922 3794 3922 3700 
L 3922 166 
Q 3922 63 3909 31 
Q 3897 0 3834 0 
Q 3791 0 3725 84 
L 1113 3922 
Q 1088 3959 1050 4000 
L 1050 672 
Q 1050 575 1062 517 
Q 1075 459 1129 373 
Q 1184 288 1331 242 
Q 1478 197 1709 197 
L 1709 0 
Q 1038 19 961 19 
Q 884 19 213 0 
z
" id="CMUSerif-Roman-4e" transform="scale(0.015625)"/>
       <path d="M 206 2559 
L 206 2759 
L 1147 2828 
L 1147 703 
Q 1147 550 1159 461 
Q 1172 372 1223 269 
Q 1275 166 1395 119 
Q 1516 72 1709 72 
Q 2056 72 2270 356 
Q 2484 641 2484 1063 
L 2484 2203 
Q 2484 2441 2400 2500 
Q 2316 2559 1984 2559 
L 1984 2759 
L 2925 2828 
L 2925 556 
Q 2925 319 3008 258 
Q 3091 197 3425 197 
L 3425 0 
L 2503 -72 
L 2503 506 
Q 2234 -69 1678 -72 
Q 1397 -72 1205 0 
Q 1013 72 916 161 
Q 819 250 767 422 
Q 716 594 709 700 
Q 703 806 703 1013 
L 703 1972 
Q 703 2406 640 2482 
Q 578 2559 206 2559 
z
M 1222 3263 
Q 1394 3428 1644 3675 
Q 1950 3981 2031 4045 
Q 2113 4109 2181 4109 
Q 2278 4109 2342 4032 
Q 2406 3956 2406 3872 
Q 2406 3834 2393 3804 
Q 2381 3775 2365 3753 
Q 2350 3731 2320 3709 
Q 2291 3688 2275 3678 
Q 2259 3669 2225 3648 
Q 2191 3628 2181 3622 
Q 1344 3147 1319 3138 
L 1222 3263 
z
" id="CMUSerif-Roman-fa" transform="scale(0.015625)"/>
       <path d="M 206 0 
L 206 197 
Q 547 197 625 239 
Q 703 281 703 488 
L 703 2203 
Q 703 2441 620 2500 
Q 538 2559 206 2559 
L 206 2759 
L 1106 2828 
L 1106 2156 
Q 1406 2828 2053 2828 
Q 2803 2828 2906 2203 
Q 3016 2447 3245 2637 
Q 3475 2828 3834 2828 
Q 4316 2828 4506 2591 
Q 4647 2431 4675 2253 
Q 4703 2075 4703 1613 
L 4703 391 
Q 4709 256 4812 226 
Q 4916 197 5203 197 
L 5203 0 
Q 4550 19 4488 19 
Q 4438 19 3763 0 
L 3763 197 
Q 4103 197 4183 239 
Q 4263 281 4263 488 
L 4263 1978 
Q 4263 2303 4163 2495 
Q 4063 2688 3788 2688 
Q 3456 2688 3190 2409 
Q 2925 2131 2925 1663 
L 2925 488 
Q 2925 281 3004 239 
Q 3084 197 3425 197 
L 3425 0 
Q 2772 19 2706 19 
Q 2656 19 1984 0 
L 1984 197 
Q 2325 197 2404 239 
Q 2484 281 2484 488 
L 2484 1978 
Q 2484 2303 2384 2495 
Q 2284 2688 2009 2688 
Q 1678 2688 1412 2409 
Q 1147 2131 1147 1663 
L 1147 488 
Q 1147 281 1226 239 
Q 1306 197 1644 197 
L 1644 0 
Q 991 19 928 19 
Q 878 19 206 0 
z
" id="CMUSerif-Roman-6d" transform="scale(0.015625)"/>
       <path d="M 178 1409 
Q 178 2013 565 2441 
Q 953 2869 1509 2869 
Q 2072 2869 2364 2503 
Q 2656 2138 2656 1613 
Q 2656 1516 2631 1497 
Q 2606 1478 2497 1478 
L 709 1478 
Q 709 825 903 519 
Q 1172 91 1625 91 
Q 1688 91 1763 103 
Q 1838 116 1991 170 
Q 2144 225 2278 372 
Q 2413 519 2491 750 
Q 2509 841 2572 838 
Q 2656 838 2656 763 
Q 2656 706 2595 579 
Q 2534 453 2418 303 
Q 2303 153 2079 40 
Q 1856 -72 1588 -72 
Q 1025 -72 601 354 
Q 178 781 178 1409 
z
M 716 1613 
L 2234 1613 
Q 2234 1747 2211 1897 
Q 2188 2047 2120 2255 
Q 2053 2463 1897 2594 
Q 1741 2725 1509 2725 
Q 1406 2725 1295 2681 
Q 1184 2638 1050 2531 
Q 916 2425 822 2184 
Q 728 1944 716 1613 
z
" id="CMUSerif-Roman-65" transform="scale(0.015625)"/>
       <path d="M 178 0 
L 178 197 
Q 519 197 598 239 
Q 678 281 678 488 
L 678 2203 
Q 678 2441 595 2500 
Q 513 2559 178 2559 
L 178 2759 
L 1069 2828 
L 1069 2125 
Q 1159 2400 1351 2614 
Q 1544 2828 1856 2828 
Q 2063 2828 2195 2712 
Q 2328 2597 2328 2438 
Q 2328 2297 2242 2226 
Q 2156 2156 2053 2156 
Q 1938 2156 1858 2229 
Q 1778 2303 1778 2431 
Q 1778 2509 1814 2570 
Q 1850 2631 1878 2653 
Q 1906 2675 1925 2681 
Q 1913 2688 1856 2688 
Q 1503 2688 1301 2336 
Q 1100 1984 1100 1484 
L 1100 500 
Q 1100 316 1176 256 
Q 1253 197 1588 197 
L 1722 197 
L 1722 0 
Q 1466 19 909 19 
Q 831 19 709 16 
Q 588 13 428 6 
Q 269 0 178 0 
z
" id="CMUSerif-Roman-72" transform="scale(0.015625)"/>
       <path d="M 601 345 
Q 178 763 178 1370 
Q 178 1978 592 2423 
Q 1006 2869 1600 2869 
Q 2181 2869 2598 2426 
Q 3016 1984 3016 1369 
Q 3016 766 2595 347 
Q 2175 -72 1594 -72 
Q 1025 -72 601 345 
z
M 709 1422 
Q 709 800 872 519 
Q 1122 91 1600 91 
Q 1838 91 2036 219 
Q 2234 347 2344 563 
Q 2484 844 2484 1422 
Q 2484 2038 2316 2309 
Q 2066 2725 1594 2725 
Q 1388 2725 1186 2617 
Q 984 2509 863 2297 
Q 709 2016 709 1422 
z
" id="CMUSerif-Roman-6f" transform="scale(0.015625)"/>
       <path id="CMUSerif-Roman-20" transform="scale(0.015625)"/>
       <path d="M 219 1375 
Q 219 1984 644 2406 
Q 1069 2828 1644 2828 
Q 2131 2828 2450 2431 
L 2450 3816 
Q 2450 4053 2367 4112 
Q 2284 4172 1953 4172 
L 1953 4372 
L 2875 4441 
L 2875 556 
Q 2875 319 2958 258 
Q 3041 197 3372 197 
L 3372 0 
L 2431 -72 
L 2431 353 
Q 2100 -69 1575 -72 
Q 1025 -72 622 350 
Q 219 772 219 1375 
z
M 750 1369 
Q 750 775 934 481 
Q 1191 72 1606 72 
Q 2081 72 2363 519 
Q 2434 628 2431 756 
L 2431 2069 
Q 2431 2197 2363 2303 
Q 2100 2688 1672 2688 
Q 1225 2688 947 2278 
Q 750 1972 750 1369 
z
" id="CMUSerif-Roman-64" transform="scale(0.015625)"/>
       <path d="M 225 0 
L 225 197 
L 378 197 
Q 725 197 804 255 
Q 884 313 884 500 
L 884 3872 
Q 884 4056 803 4114 
Q 722 4172 378 4172 
L 225 4172 
L 225 4372 
L 2566 4372 
Q 3384 4372 3954 3719 
Q 4525 3066 4525 2150 
Q 4525 1253 3951 626 
Q 3378 0 2566 0 
L 225 0 
z
M 1434 453 
Q 1434 288 1481 242 
Q 1528 197 1747 197 
L 2394 197 
Q 2816 197 3100 370 
Q 3384 544 3531 744 
Q 3884 1225 3884 2150 
Q 3884 3122 3553 3578 
Q 3125 4172 2388 4172 
L 1747 4172 
Q 1528 4172 1481 4128 
Q 1434 4084 1434 3916 
L 1434 453 
z
" id="CMUSerif-Roman-44" transform="scale(0.015625)"/>
       <path d="M 213 0 
L 213 197 
Q 553 197 631 239 
Q 709 281 709 488 
L 709 2209 
Q 709 2447 629 2503 
Q 550 2559 238 2559 
L 238 2759 
L 1131 2828 
L 1131 481 
Q 1131 291 1200 244 
Q 1269 197 1581 197 
L 1581 0 
Q 928 19 916 19 
Q 828 19 213 0 
z
M 513 3263 
Q 684 3434 941 3681 
Q 1253 3988 1328 4048 
Q 1403 4109 1472 4109 
Q 1569 4109 1633 4032 
Q 1697 3956 1697 3872 
Q 1697 3822 1676 3780 
Q 1656 3738 1609 3703 
Q 1563 3669 1542 3658 
Q 1522 3647 1472 3622 
Q 634 3147 609 3138 
L 513 3263 
z
" id="CMUSerif-Roman-ed" transform="scale(0.015625)"/>
       <path d="M 269 609 
Q 269 1153 909 1441 
Q 1294 1625 2088 1672 
L 2088 1906 
Q 2088 2303 1880 2514 
Q 1672 2725 1409 2725 
Q 941 2725 716 2431 
Q 906 2425 975 2329 
Q 1044 2234 1044 2138 
Q 1044 2009 964 1926 
Q 884 1844 750 1844 
Q 622 1844 537 1923 
Q 453 2003 453 2144 
Q 453 2456 736 2662 
Q 1019 2869 1422 2869 
Q 1947 2869 2297 2516 
Q 2406 2406 2461 2265 
Q 2516 2125 2522 2033 
Q 2528 1941 2528 1759 
L 2528 481 
Q 2528 444 2540 381 
Q 2553 319 2611 239 
Q 2669 159 2766 159 
Q 2997 159 2994 569 
L 2994 928 
L 3156 928 
L 3156 569 
Q 3156 228 2976 95 
Q 2797 -38 2631 -38 
Q 2419 -38 2284 118 
Q 2150 275 2131 488 
Q 2034 244 1814 86 
Q 1594 -72 1294 -72 
Q 1063 -72 845 -14 
Q 628 44 448 205 
Q 269 366 269 609 
z
M 763 616 
Q 763 378 931 225 
Q 1100 72 1338 72 
Q 1606 72 1847 280 
Q 2088 488 2088 897 
L 2088 1538 
Q 1378 1513 1070 1230 
Q 763 947 763 616 
z
" id="CMUSerif-Roman-61" transform="scale(0.015625)"/>
       <path d="M 213 84 
L 213 928 
Q 213 1000 216 1025 
Q 219 1050 237 1069 
Q 256 1088 294 1088 
Q 338 1088 355 1069 
Q 372 1050 384 978 
Q 481 538 689 305 
Q 897 72 1275 72 
Q 1634 72 1815 231 
Q 1997 391 1997 653 
Q 1997 1122 1331 1241 
Q 947 1319 787 1370 
Q 628 1422 488 1538 
Q 213 1763 213 2081 
Q 213 2400 455 2634 
Q 697 2869 1234 2869 
Q 1594 2869 1838 2688 
Q 1909 2744 1947 2791 
Q 2031 2869 2075 2869 
Q 2125 2869 2134 2836 
Q 2144 2803 2144 2713 
L 2144 2069 
Q 2144 1997 2141 1972 
Q 2138 1947 2119 1930 
Q 2100 1913 2059 1913 
Q 1988 1913 1984 1972 
Q 1934 2747 1234 2747 
Q 856 2747 687 2601 
Q 519 2456 519 2259 
Q 519 2150 570 2067 
Q 622 1984 689 1936 
Q 756 1888 881 1842 
Q 1006 1797 1082 1781 
Q 1159 1766 1306 1734 
Q 1819 1638 2034 1428 
Q 2303 1159 2303 819 
Q 2303 441 2047 184 
Q 1791 -72 1275 -72 
Q 859 -72 569 206 
Q 531 169 503 136 
Q 475 103 464 90 
Q 453 78 450 70 
Q 447 63 441 56 
Q 313 -72 281 -72 
Q 231 -72 222 -39 
Q 213 -6 213 84 
z
" id="CMUSerif-Roman-73" transform="scale(0.015625)"/>
      </defs>
      <use xlink:href="#CMUSerif-Roman-4e"/>
      <use x="75" xlink:href="#CMUSerif-Roman-fa"/>
      <use x="130.46875" xlink:href="#CMUSerif-Roman-6d"/>
      <use x="213.720703" xlink:href="#CMUSerif-Roman-65"/>
      <use x="258.105469" xlink:href="#CMUSerif-Roman-72"/>
      <use x="297.167969" xlink:href="#CMUSerif-Roman-6f"/>
      <use x="347.167969" xlink:href="#CMUSerif-Roman-20"/>
      <use x="380.419922" xlink:href="#CMUSerif-Roman-64"/>
      <use x="435.888672" xlink:href="#CMUSerif-Roman-65"/>
      <use x="480.273438" xlink:href="#CMUSerif-Roman-20"/>
      <use x="513.525391" xlink:href="#CMUSerif-Roman-44"/>
      <use x="589.794922" xlink:href="#CMUSerif-Roman-ed"/>
      <use x="617.480469" xlink:href="#CMUSerif-Roman-61"/>
      <use x="667.480469" xlink:href="#CMUSerif-Roman-73"/>
     </g>
    </g>
   </g>
   <g id="matplotlib.axis_2">
    <g id="ytick_1">
     <g id="line2d_17">
      <path clip-path="url(#pa9bd93411c)" d="M 54 227.576187 
L 388.8 227.576187 
" style="fill:none;stroke:#b0b0b0;stroke-linecap:square;stroke-width:0.8;"/>
     </g>
     <g id="line2d_18">
      <defs>
       <path d="M 0 0 
L -3.5 0 
" id="mb24bb603f7" style="stroke:#000000;stroke-width:0.8;"/>
      </defs>
      <g>
       <use style="stroke:#000000;stroke-width:0.8;" x="54" xlink:href="#mb24bb603f7" y="227.576187"/>
      </g>
     </g>
     <g id="text_10">
      <!-- -20 -->
      <g transform="translate(33.675 231.045718)scale(0.1 -0.1)">
       <defs>
        <path d="M 63 1191 
L 63 1569 
L 1766 1569 
L 1766 1191 
L 63 1191 
z
" id="CMUSerif-Roman-2d" transform="scale(0.015625)"/>
       </defs>
       <use xlink:href="#CMUSerif-Roman-2d"/>
       <use x="33.251953" xlink:href="#CMUSerif-Roman-32"/>
       <use x="83.251953" xlink:href="#CMUSerif-Roman-30"/>
      </g>
     </g>
    </g>
    <g id="ytick_2">
     <g id="line2d_19">
      <path clip-path="url(#pa9bd93411c)" d="M 54 185.428093 
L 388.8 185.428093 
" style="fill:none;stroke:#b0b0b0;stroke-linecap:square;stroke-width:0.8;"/>
     </g>
     <g id="line2d_20">
      <g>
       <use style="stroke:#000000;stroke-width:0.8;" x="54" xlink:href="#mb24bb603f7" y="185.428093"/>
      </g>
     </g>
     <g id="text_11">
      <!-- -10 -->
      <g transform="translate(33.675 188.897625)scale(0.1 -0.1)">
       <use xlink:href="#CMUSerif-Roman-2d"/>
       <use x="33.251953" xlink:href="#CMUSerif-Roman-31"/>
       <use x="83.251953" xlink:href="#CMUSerif-Roman-30"/>
      </g>
     </g>
    </g>
    <g id="ytick_3">
     <g id="line2d_21">
      <path clip-path="url(#pa9bd93411c)" d="M 54 143.28 
L 388.8 143.28 
" style="fill:none;stroke:#b0b0b0;stroke-linecap:square;stroke-width:0.8;"/>
     </g>
     <g id="line2d_22">
      <g>
       <use style="stroke:#000000;stroke-width:0.8;" x="54" xlink:href="#mb24bb603f7" y="143.28"/>
      </g>
     </g>
     <g id="text_12">
      <!-- 0 -->
      <g transform="translate(42 146.749531)scale(0.1 -0.1)">
       <use xlink:href="#CMUSerif-Roman-30"/>
      </g>
     </g>
    </g>
    <g id="ytick_4">
     <g id="line2d_23">
      <path clip-path="url(#pa9bd93411c)" d="M 54 101.131907 
L 388.8 101.131907 
" style="fill:none;stroke:#b0b0b0;stroke-linecap:square;stroke-width:0.8;"/>
     </g>
     <g id="line2d_24">
      <g>
       <use style="stroke:#000000;stroke-width:0.8;" x="54" xlink:href="#mb24bb603f7" y="101.131907"/>
      </g>
     </g>
     <g id="text_13">
      <!-- 10 -->
      <g transform="translate(37 104.601438)scale(0.1 -0.1)">
       <use xlink:href="#CMUSerif-Roman-31"/>
       <use x="50" xlink:href="#CMUSerif-Roman-30"/>
      </g>
     </g>
    </g>
    <g id="ytick_5">
     <g id="line2d_25">
      <path clip-path="url(#pa9bd93411c)" d="M 54 58.983813 
L 388.8 58.983813 
" style="fill:none;stroke:#b0b0b0;stroke-linecap:square;stroke-width:0.8;"/>
     </g>
     <g id="line2d_26">
      <g>
       <use style="stroke:#000000;stroke-width:0.8;" x="54" xlink:href="#mb24bb603f7" y="58.983813"/>
      </g>
     </g>
     <g id="text_14">
      <!-- 20 -->
      <g transform="translate(37 62.453345)scale(0.1 -0.1)">
       <use xlink:href="#CMUSerif-Roman-32"/>
       <use x="50" xlink:href="#CMUSerif-Roman-30"/>
      </g>
     </g>
    </g>
    <g id="text_15">
     <!-- Ángulo de Declinación (Grados) -->
     <g transform="translate(27.175 213.603437)rotate(-90)scale(0.1 -0.1)">
      <defs>
       <path d="M 206 0 
L 206 197 
Q 775 209 922 628 
L 2247 4453 
Q 2272 4531 2300 4556 
Q 2328 4581 2400 4581 
Q 2438 4581 2461 4575 
Q 2484 4569 2500 4547 
Q 2516 4525 2522 4512 
Q 2528 4500 2547 4453 
L 3928 453 
Q 3978 294 4081 245 
Q 4184 197 4475 197 
L 4588 197 
L 4588 0 
Q 4184 19 3750 19 
Q 3059 19 2828 0 
L 2828 197 
Q 3359 197 3359 391 
Q 3359 403 3341 481 
L 3003 1459 
L 1422 1459 
L 1125 622 
Q 1113 597 1113 525 
Q 1113 391 1238 294 
Q 1363 197 1594 197 
L 1594 0 
Q 978 19 856 19 
Q 647 19 206 0 
z
M 1491 1656 
L 2931 1656 
L 2209 3738 
L 1491 1656 
z
M 1831 4897 
Q 2791 5491 2853 5509 
Q 2872 5516 2906 5516 
Q 2997 5516 3059 5439 
Q 3122 5363 3122 5278 
Q 3122 5094 2853 5044 
Q 1981 4775 1894 4747 
L 1831 4897 
z
" id="CMUSerif-Roman-c1" transform="scale(0.015625)"/>
       <path d="M 206 0 
L 206 197 
Q 547 197 625 239 
Q 703 281 703 488 
L 703 2203 
Q 703 2441 620 2500 
Q 538 2559 206 2559 
L 206 2759 
L 1106 2828 
L 1106 2156 
Q 1406 2828 2053 2828 
Q 2534 2828 2725 2591 
Q 2866 2431 2895 2253 
Q 2925 2075 2925 1613 
L 2925 391 
Q 2931 256 3034 226 
Q 3138 197 3425 197 
L 3425 0 
Q 2772 19 2706 19 
Q 2656 19 1984 0 
L 1984 197 
Q 2325 197 2404 239 
Q 2484 281 2484 488 
L 2484 1978 
Q 2484 2303 2384 2495 
Q 2284 2688 2009 2688 
Q 1678 2688 1412 2409 
Q 1147 2131 1147 1663 
L 1147 488 
Q 1147 281 1226 239 
Q 1306 197 1644 197 
L 1644 0 
Q 991 19 928 19 
Q 878 19 206 0 
z
" id="CMUSerif-Roman-6e" transform="scale(0.015625)"/>
       <path d="M 178 -506 
Q 178 -300 336 -122 
Q 494 56 769 134 
Q 488 313 488 703 
Q 488 1003 684 1234 
Q 384 1484 384 1894 
Q 384 2272 684 2550 
Q 984 2828 1422 2828 
Q 1806 2828 2100 2597 
Q 2406 2897 2778 2900 
Q 2944 2900 3023 2797 
Q 3103 2694 3103 2584 
Q 3103 2488 3042 2441 
Q 2981 2394 2919 2394 
Q 2841 2394 2786 2445 
Q 2731 2497 2731 2578 
Q 2731 2713 2834 2753 
Q 2816 2759 2772 2759 
Q 2459 2759 2194 2509 
Q 2456 2266 2456 1887 
Q 2456 1509 2156 1231 
Q 1856 953 1422 953 
Q 1063 953 788 1153 
Q 678 1025 678 850 
Q 678 691 775 566 
Q 872 441 1019 422 
Q 1063 416 1497 416 
Q 1753 416 1893 409 
Q 2034 403 2236 361 
Q 2438 319 2597 238 
Q 3013 6 3016 -494 
Q 3016 -859 2595 -1089 
Q 2175 -1319 1594 -1319 
Q 1006 -1319 592 -1086 
Q 178 -853 178 -506 
z
M 513 -506 
Q 513 -769 822 -970 
Q 1131 -1172 1600 -1172 
Q 2059 -1172 2370 -973 
Q 2681 -775 2681 -506 
Q 2681 -316 2572 -194 
Q 2463 -72 2239 -23 
Q 2016 25 1859 34 
Q 1703 44 1416 44 
L 1038 44 
Q 819 31 666 -128 
Q 513 -288 513 -506 
z
M 863 1888 
Q 863 1100 1422 1100 
Q 1703 1100 1875 1356 
Q 1978 1528 1978 1894 
Q 1978 2681 1422 2681 
Q 1141 2681 966 2425 
Q 863 2253 863 1888 
z
" id="CMUSerif-Roman-67" transform="scale(0.015625)"/>
       <path d="M 206 2559 
L 206 2759 
L 1147 2828 
L 1147 703 
Q 1147 550 1159 461 
Q 1172 372 1223 269 
Q 1275 166 1395 119 
Q 1516 72 1709 72 
Q 2056 72 2270 356 
Q 2484 641 2484 1063 
L 2484 2203 
Q 2484 2441 2400 2500 
Q 2316 2559 1984 2559 
L 1984 2759 
L 2925 2828 
L 2925 556 
Q 2925 319 3008 258 
Q 3091 197 3425 197 
L 3425 0 
L 2503 -72 
L 2503 506 
Q 2234 -69 1678 -72 
Q 1397 -72 1205 0 
Q 1013 72 916 161 
Q 819 250 767 422 
Q 716 594 709 700 
Q 703 806 703 1013 
L 703 1972 
Q 703 2406 640 2482 
Q 578 2559 206 2559 
z
" id="CMUSerif-Roman-75" transform="scale(0.015625)"/>
       <path d="M 213 0 
L 213 197 
Q 553 197 631 239 
Q 709 281 709 488 
L 709 3816 
Q 709 4053 626 4112 
Q 544 4172 213 4172 
L 213 4372 
L 1131 4441 
L 1131 488 
Q 1131 281 1212 239 
Q 1294 197 1631 197 
L 1631 0 
Q 1553 0 1390 6 
Q 1228 13 1109 16 
Q 991 19 922 19 
Q 847 19 213 0 
z
" id="CMUSerif-Roman-6c" transform="scale(0.015625)"/>
       <path d="M 625 351 
Q 219 775 219 1383 
Q 219 1991 619 2430 
Q 1019 2869 1606 2869 
Q 1997 2869 2290 2683 
Q 2584 2497 2584 2181 
Q 2584 2041 2501 1961 
Q 2419 1881 2291 1881 
Q 2156 1881 2076 1964 
Q 1997 2047 1997 2175 
Q 1997 2231 2015 2287 
Q 2034 2344 2104 2403 
Q 2175 2463 2297 2472 
Q 2069 2706 1625 2706 
Q 1619 2706 1613 2706 
Q 1288 2706 1019 2400 
Q 750 2094 750 1394 
Q 750 1028 839 761 
Q 928 494 1075 356 
Q 1222 219 1365 155 
Q 1509 91 1650 91 
Q 2278 91 2491 763 
Q 2509 825 2572 825 
Q 2656 825 2656 763 
Q 2656 731 2631 650 
Q 2606 569 2528 441 
Q 2450 313 2339 202 
Q 2228 91 2033 9 
Q 1838 -72 1594 -72 
Q 1031 -72 625 351 
z
" id="CMUSerif-Roman-63" transform="scale(0.015625)"/>
       <path d="M 213 0 
L 213 197 
Q 553 197 631 239 
Q 709 281 709 488 
L 709 2209 
Q 709 2447 629 2503 
Q 550 2559 238 2559 
L 238 2759 
L 1131 2828 
L 1131 481 
Q 1131 291 1200 244 
Q 1269 197 1581 197 
L 1581 0 
Q 928 19 916 19 
Q 828 19 213 0 
z
M 481 3944 
Q 481 4072 579 4176 
Q 678 4281 818 4281 
Q 959 4281 1059 4186 
Q 1159 4091 1159 3942 
Q 1159 3794 1059 3698 
Q 959 3603 819 3603 
Q 672 3603 576 3706 
Q 481 3809 481 3944 
z
" id="CMUSerif-Roman-69" transform="scale(0.015625)"/>
       <path d="M 601 345 
Q 178 763 178 1370 
Q 178 1978 592 2423 
Q 1006 2869 1600 2869 
Q 2181 2869 2598 2426 
Q 3016 1984 3016 1369 
Q 3016 766 2595 347 
Q 2175 -72 1594 -72 
Q 1025 -72 601 345 
z
M 709 1422 
Q 709 800 872 519 
Q 1122 91 1600 91 
Q 1838 91 2036 219 
Q 2234 347 2344 563 
Q 2484 844 2484 1422 
Q 2484 2038 2316 2309 
Q 2066 2725 1594 2725 
Q 1388 2725 1186 2617 
Q 984 2509 863 2297 
Q 709 2016 709 1422 
z
M 1009 3263 
Q 1181 3428 1431 3675 
Q 1738 3981 1819 4045 
Q 1900 4109 1969 4109 
Q 2066 4109 2130 4032 
Q 2194 3956 2194 3872 
Q 2194 3834 2181 3804 
Q 2169 3775 2153 3753 
Q 2138 3731 2108 3709 
Q 2078 3688 2062 3678 
Q 2047 3669 2012 3648 
Q 1978 3628 1969 3622 
Q 1131 3147 1106 3138 
L 1009 3263 
z
" id="CMUSerif-Roman-f3" transform="scale(0.015625)"/>
       <path d="M 634 1600 
Q 634 2681 1038 3553 
Q 1209 3919 1450 4225 
Q 1691 4531 1850 4665 
Q 2009 4800 2053 4800 
Q 2116 4800 2119 4738 
Q 2119 4706 2034 4628 
Q 1003 3578 1006 1600 
Q 1006 -384 2009 -1394 
Q 2119 -1503 2119 -1538 
Q 2119 -1600 2053 -1600 
Q 2009 -1600 1856 -1472 
Q 1703 -1344 1465 -1050 
Q 1228 -756 1056 -397 
Q 634 475 634 1600 
z
" id="CMUSerif-Roman-28" transform="scale(0.015625)"/>
       <path d="M 1017 537 
Q 359 1216 359 2189 
Q 359 3163 1021 3838 
Q 1684 4513 2584 4513 
Q 2809 4513 3001 4461 
Q 3194 4409 3347 4307 
Q 3500 4206 3579 4139 
Q 3659 4072 3769 3963 
L 4091 4434 
Q 4141 4513 4192 4513 
Q 4244 4513 4253 4483 
Q 4263 4453 4263 4359 
L 4263 2841 
Q 4263 2738 4250 2713 
Q 4238 2688 4159 2688 
Q 4097 2688 4084 2706 
Q 4072 2725 4056 2797 
Q 3959 3488 3573 3900 
Q 3188 4313 2663 4313 
Q 2509 4313 2339 4278 
Q 2169 4244 1920 4112 
Q 1672 3981 1483 3767 
Q 1294 3553 1156 3142 
Q 1019 2731 1019 2188 
Q 1019 1650 1156 1237 
Q 1294 825 1486 611 
Q 1678 397 1929 262 
Q 2181 128 2361 92 
Q 2541 56 2700 56 
Q 2809 56 2937 79 
Q 3066 103 3258 173 
Q 3450 244 3572 412 
Q 3694 581 3694 831 
L 3694 1241 
Q 3694 1431 3600 1490 
Q 3506 1550 3097 1550 
L 2894 1550 
L 2894 1747 
Q 3125 1728 3922 1728 
Q 3994 1728 4703 1747 
L 4703 1550 
Q 4397 1550 4330 1504 
Q 4263 1459 4263 1269 
L 4263 153 
Q 4263 6 4206 6 
Q 4156 6 4007 150 
Q 3859 294 3794 403 
Q 3641 134 3308 -3 
Q 2975 -141 2597 -141 
Q 1675 -141 1017 537 
z
" id="CMUSerif-Roman-47" transform="scale(0.015625)"/>
       <path d="M 366 -1538 
Q 366 -1506 447 -1428 
Q 1478 -378 1478 1600 
Q 1478 3584 488 4588 
Q 366 4703 366 4738 
Q 366 4800 428 4800 
Q 472 4800 626 4672 
Q 781 4544 1017 4250 
Q 1253 3956 1428 3597 
Q 1850 2725 1850 1600 
Q 1850 519 1447 -353 
Q 1275 -719 1034 -1025 
Q 794 -1331 634 -1465 
Q 475 -1600 428 -1600 
Q 366 -1600 366 -1538 
z
" id="CMUSerif-Roman-29" transform="scale(0.015625)"/>
      </defs>
      <use xlink:href="#CMUSerif-Roman-c1"/>
      <use x="75" xlink:href="#CMUSerif-Roman-6e"/>
      <use x="130.46875" xlink:href="#CMUSerif-Roman-67"/>
      <use x="180.46875" xlink:href="#CMUSerif-Roman-75"/>
      <use x="235.9375" xlink:href="#CMUSerif-Roman-6c"/>
      <use x="263.623047" xlink:href="#CMUSerif-Roman-6f"/>
      <use x="313.623047" xlink:href="#CMUSerif-Roman-20"/>
      <use x="346.875" xlink:href="#CMUSerif-Roman-64"/>
      <use x="402.34375" xlink:href="#CMUSerif-Roman-65"/>
      <use x="446.728516" xlink:href="#CMUSerif-Roman-20"/>
      <use x="479.980469" xlink:href="#CMUSerif-Roman-44"/>
      <use x="556.25" xlink:href="#CMUSerif-Roman-65"/>
      <use x="600.634766" xlink:href="#CMUSerif-Roman-63"/>
      <use x="645.019531" xlink:href="#CMUSerif-Roman-6c"/>
      <use x="672.705078" xlink:href="#CMUSerif-Roman-69"/>
      <use x="700.390625" xlink:href="#CMUSerif-Roman-6e"/>
      <use x="755.859375" xlink:href="#CMUSerif-Roman-61"/>
      <use x="805.859375" xlink:href="#CMUSerif-Roman-63"/>
      <use x="850.244141" xlink:href="#CMUSerif-Roman-69"/>
      <use x="877.929688" xlink:href="#CMUSerif-Roman-f3"/>
      <use x="927.929688" xlink:href="#CMUSerif-Roman-6e"/>
      <use x="983.398438" xlink:href="#CMUSerif-Roman-20"/>
      <use x="1016.650391" xlink:href="#CMUSerif-Roman-28"/>
      <use x="1055.419922" xlink:href="#CMUSerif-Roman-47"/>
      <use x="1133.789062" xlink:href="#CMUSerif-Roman-72"/>
      <use x="1172.851562" xlink:href="#CMUSerif-Roman-61"/>
      <use x="1222.851562" xlink:href="#CMUSerif-Roman-64"/>
      <use x="1278.320312" xlink:href="#CMUSerif-Roman-6f"/>
      <use x="1328.320312" xlink:href="#CMUSerif-Roman-73"/>
      <use x="1367.675781" xlink:href="#CMUSerif-Roman-29"/>
     </g>
    </g>
   </g>
   <g id="line2d_27">
    <path clip-path="url(#pa9bd93411c)" d="M 69.218182 240.269661 
L 71.733584 239.158478 
L 74.248986 237.791648 
L 76.764388 236.172815 
L 79.27979 234.306296 
L 81.795192 232.197067 
L 84.310594 229.850753 
L 87.664463 226.364436 
L 91.018332 222.484349 
L 94.372201 218.228883 
L 97.726071 213.618204 
L 101.07994 208.674165 
L 105.272276 202.061167 
L 109.464613 195.012974 
L 114.495417 186.054362 
L 119.526221 176.639845 
L 126.233959 163.551971 
L 135.4571 144.981321 
L 148.03411 119.690233 
L 154.741848 106.737432 
L 159.772652 97.463953 
L 164.803456 88.678797 
L 168.995793 81.798592 
L 173.188129 75.373574 
L 176.541998 70.593383 
L 179.895868 66.157681 
L 183.249737 62.087493 
L 186.603606 58.402107 
L 189.957476 55.118991 
L 192.472878 52.930077 
L 194.988279 50.982069 
L 197.503681 49.280162 
L 200.019083 47.828892 
L 202.534485 46.632131 
L 205.049887 45.693068 
L 207.565289 45.014207 
L 210.080691 44.59736 
L 212.596093 44.443636 
L 215.111495 44.553447 
L 217.626897 44.926499 
L 220.142299 45.561797 
L 222.657701 46.457648 
L 225.173103 47.611663 
L 227.688505 49.020765 
L 230.203907 50.681197 
L 232.719309 52.588531 
L 235.234711 54.737682 
L 237.750113 57.122919 
L 241.103982 60.6594 
L 244.457851 64.587452 
L 247.811721 68.888459 
L 251.16559 73.542036 
L 254.519459 78.526128 
L 258.711796 85.184905 
L 262.904132 92.273798 
L 267.934936 101.274123 
L 272.96574 110.722162 
L 279.673479 123.841387 
L 289.735086 144.130692 
L 300.635162 166.042786 
L 307.3429 179.030801 
L 312.373704 188.340577 
L 317.404508 197.170081 
L 321.596844 204.093056 
L 325.789181 210.565791 
L 329.14305 215.387483 
L 332.49692 219.86743 
L 335.850789 223.984399 
L 339.204658 227.718879 
L 342.558527 231.053169 
L 345.073929 233.281684 
L 347.589331 235.270221 
L 350.104733 237.013478 
L 352.620135 238.506807 
L 355.135537 239.746227 
L 357.650939 240.728432 
L 360.166341 241.450804 
L 362.681743 241.911417 
L 365.197145 242.109042 
L 367.712547 242.043152 
L 370.227949 241.713924 
L 372.743351 241.122234 
L 373.581818 240.866932 
L 373.581818 240.866932 
" style="fill:none;stroke:#000000;stroke-linecap:square;stroke-width:1.5;"/>
   </g>
   <g id="patch_3">
    <path d="M 54 252 
L 54 34.56 
" style="fill:none;stroke:#000000;stroke-linecap:square;stroke-linejoin:miter;stroke-width:0.8;"/>
   </g>
   <g id="patch_4">
    <path d="M 388.8 252 
L 388.8 34.56 
" style="fill:none;stroke:#000000;stroke-linecap:square;stroke-linejoin:miter;stroke-width:0.8;"/>
   </g>
   <g id="patch_5">
    <path d="M 54 252 
L 388.8 252 
" style="fill:none;stroke:#000000;stroke-linecap:square;stroke-linejoin:miter;stroke-width:0.8;"/>
   </g>
   <g id="patch_6">
    <path d="M 54 34.56 
L 388.8 34.56 
" style="fill:none;stroke:#000000;stroke-linecap:square;stroke-linejoin:miter;stroke-width:0.8;"/>
   </g>
   <g id="text_16">
    <!-- Declinación Solar -->
    <g transform="translate(175.865625 28.56)scale(0.12 -0.12)">
     <defs>
      <path d="M 359 13 
L 359 1294 
Q 359 1366 362 1391 
Q 366 1416 384 1434 
Q 403 1453 441 1453 
Q 513 1453 519 1388 
Q 538 753 916 403 
Q 1288 56 1925 56 
Q 2309 56 2546 332 
Q 2784 609 2784 972 
Q 2784 1319 2584 1563 
Q 2500 1672 2395 1742 
Q 2291 1813 2227 1834 
Q 2163 1856 2041 1888 
Q 1247 2078 1197 2100 
Q 819 2228 589 2551 
Q 359 2875 359 3272 
Q 359 3784 720 4148 
Q 1081 4513 1606 4513 
Q 1869 4513 2089 4430 
Q 2309 4347 2400 4272 
Q 2491 4197 2631 4063 
L 2853 4428 
Q 2903 4513 2950 4513 
Q 3000 4513 3011 4483 
Q 3022 4453 3022 4359 
L 3022 3072 
Q 3022 3000 3019 2975 
Q 3016 2950 2995 2934 
Q 2975 2919 2938 2919 
Q 2875 2919 2859 2994 
Q 2681 4331 1613 4331 
Q 1247 4331 1008 4086 
Q 769 3841 769 3494 
Q 769 3213 944 2983 
Q 1119 2753 1416 2681 
L 2234 2484 
Q 2644 2388 2919 2025 
Q 3194 1663 3194 1191 
Q 3194 647 2839 253 
Q 2484 -141 1931 -141 
Q 1534 -141 1228 -9 
Q 922 122 756 306 
Q 628 94 544 -25 
L 525 -56 
Q 475 -141 428 -141 
Q 378 -141 368 -109 
Q 359 -78 359 13 
z
" id="CMUSerif-Roman-53" transform="scale(0.015625)"/>
     </defs>
     <use xlink:href="#CMUSerif-Roman-44"/>
     <use x="76.269531" xlink:href="#CMUSerif-Roman-65"/>
     <use x="120.654297" xlink:href="#CMUSerif-Roman-63"/>
     <use x="165.039062" xlink:href="#CMUSerif-Roman-6c"/>
     <use x="192.724609" xlink:href="#CMUSerif-Roman-69"/>
     <use x="220.410156" xlink:href="#CMUSerif-Roman-6e"/>
     <use x="275.878906" xlink:href="#CMUSerif-Roman-61"/>
     <use x="325.878906" xlink:href="#CMUSerif-Roman-63"/>
     <use x="370.263672" xlink:href="#CMUSerif-Roman-69"/>
     <use x="397.949219" xlink:href="#CMUSerif-Roman-f3"/>
     <use x="447.949219" xlink:href="#CMUSerif-Roman-6e"/>
     <use x="503.417969" xlink:href="#CMUSerif-Roman-20"/>
     <use x="536.669922" xlink:href="#CMUSerif-Roman-53"/>
     <use x="592.138672" xlink:href="#CMUSerif-Roman-6f"/>
     <use x="642.138672" xlink:href="#CMUSerif-Roman-6c"/>
     <use x="669.824219" xlink:href="#CMUSerif-Roman-61"/>
     <use x="719.824219" xlink:href="#CMUSerif-Roman-72"/>
    </g>
   </g>
  </g>
 </g>
 <defs>
  <clipPath id="pa9bd93411c">
   <rect height="217.44" width="334.8" x="54" y="34.56"/>
  </clipPath>
 </defs>
</svg>
