<?xml version="1.0" encoding="utf-8" standalone="no"?>
<!DOCTYPE svg PUBLIC "-//W3C//DTD SVG 1.1//EN"
  "http://www.w3.org/Graphics/SVG/1.1/DTD/svg11.dtd">
<svg height="360pt" version="1.1" viewBox="0 0 720 360" width="720pt" xmlns="http://www.w3.org/2000/svg" xmlns:xlink="http://www.w3.org/1999/xlink">
 <metadata>
  <rdf:RDF xmlns:cc="http://creativecommons.org/ns#" xmlns:dc="http://purl.org/dc/elements/1.1/" xmlns:rdf="http://www.w3.org/1999/02/22-rdf-syntax-ns#">
   <cc:Work>
    <dc:type rdf:resource="http://purl.org/dc/dcmitype/StillImage"/>
    <dc:date>2022-06-03T03:20:01.334599</dc:date>
    <dc:format>image/svg+xml</dc:format>
    <dc:creator>
     <cc:Agent>
      <dc:title>Matplotlib v3.4.3, https://matplotlib.org/</dc:title>
     </cc:Agent>
    </dc:creator>
   </cc:Work>
  </rdf:RDF>
 </metadata>
 <defs>
  <style type="text/css">*{stroke-linecap:butt;stroke-linejoin:round;}</style>
 </defs>
 <g id="figure_1">
  <g id="patch_1">
   <path d="M 0 360 
L 720 360 
L 720 0 
L 0 0 
z
" style="fill:none;"/>
  </g>
  <g id="axes_1">
   <g id="patch_2">
    <path d="M 90 315 
L 648 315 
L 648 43.2 
L 90 43.2 
z
" style="fill:none;"/>
   </g>
   <g id="matplotlib.axis_1">
    <g id="xtick_1">
     <g id="line2d_1">
      <path clip-path="url(#p4bb18a3be7)" d="M 113.966191 315 
L 113.966191 43.2 
" style="fill:none;stroke:#b0b0b0;stroke-linecap:square;stroke-width:0.8;"/>
     </g>
     <g id="line2d_2">
      <defs>
       <path d="M 0 0 
L 0 3.5 
" id="m813a3f0bf1" style="stroke:#000000;stroke-width:0.8;"/>
      </defs>
      <g>
       <use style="stroke:#000000;stroke-width:0.8;" x="113.966191" xlink:href="#m813a3f0bf1" y="315"/>
      </g>
     </g>
     <g id="text_1">
      <!-- 0 -->
      <g transform="translate(111.466191 328.939062)scale(0.1 -0.1)">
       <defs>
        <path d="M 250 2047 
Q 250 2988 488 3500 
Q 819 4263 1600 4263 
Q 1766 4263 1939 4217 
Q 2113 4172 2333 4000 
Q 2553 3828 2688 3547 
Q 2944 3003 2944 2047 
Q 2944 1113 2706 603 
Q 2359 -141 1594 -141 
Q 1306 -141 1014 6 
Q 722 153 538 506 
Q 250 1034 250 2047 
z
M 781 2125 
Q 781 1159 850 775 
Q 928 359 1142 179 
Q 1356 0 1594 0 
Q 1850 0 2064 192 
Q 2278 384 2344 800 
Q 2416 1209 2413 2125 
Q 2413 3016 2350 3372 
Q 2266 3788 2042 3955 
Q 1819 4122 1594 4122 
Q 1509 4122 1420 4097 
Q 1331 4072 1203 4000 
Q 1075 3928 976 3750 
Q 878 3572 831 3303 
Q 781 2956 781 2125 
z
" id="CMUSerif-Roman-30" transform="scale(0.015625)"/>
       </defs>
       <use xlink:href="#CMUSerif-Roman-30"/>
      </g>
     </g>
    </g>
    <g id="xtick_2">
     <g id="line2d_3">
      <path clip-path="url(#p4bb18a3be7)" d="M 183.838467 315 
L 183.838467 43.2 
" style="fill:none;stroke:#b0b0b0;stroke-linecap:square;stroke-width:0.8;"/>
     </g>
     <g id="line2d_4">
      <g>
       <use style="stroke:#000000;stroke-width:0.8;" x="183.838467" xlink:href="#m813a3f0bf1" y="315"/>
      </g>
     </g>
     <g id="text_2">
      <!-- 50 -->
      <g transform="translate(178.838467 328.939062)scale(0.1 -0.1)">
       <defs>
        <path d="M 319 1031 
Q 319 1222 422 1295 
Q 525 1369 634 1369 
Q 781 1369 867 1276 
Q 953 1184 953 1056 
Q 953 928 867 836 
Q 781 744 634 744 
Q 563 744 525 756 
Q 609 463 867 250 
Q 1125 38 1466 38 
Q 1894 38 2150 453 
Q 2303 722 2303 1331 
Q 2303 1869 2188 2138 
Q 2009 2547 1644 2547 
Q 1125 2547 819 2100 
Q 781 2044 738 2041 
Q 675 2041 661 2077 
Q 647 2113 647 2209 
L 647 4103 
Q 647 4256 709 4256 
Q 734 4256 788 4238 
Q 1191 4059 1638 4056 
Q 2097 4056 2509 4244 
Q 2541 4263 2559 4263 
Q 2622 4263 2625 4191 
Q 2625 4166 2573 4092 
Q 2522 4019 2412 3923 
Q 2303 3828 2162 3737 
Q 2022 3647 1817 3586 
Q 1613 3525 1388 3525 
Q 1119 3525 844 3609 
L 844 2363 
Q 1175 2688 1656 2688 
Q 2169 2688 2522 2275 
Q 2875 1863 2875 1288 
Q 2875 684 2458 271 
Q 2041 -141 1478 -141 
Q 966 -141 642 225 
Q 319 591 319 1031 
z
" id="CMUSerif-Roman-35" transform="scale(0.015625)"/>
       </defs>
       <use xlink:href="#CMUSerif-Roman-35"/>
       <use x="50" xlink:href="#CMUSerif-Roman-30"/>
      </g>
     </g>
    </g>
    <g id="xtick_3">
     <g id="line2d_5">
      <path clip-path="url(#p4bb18a3be7)" d="M 253.710744 315 
L 253.710744 43.2 
" style="fill:none;stroke:#b0b0b0;stroke-linecap:square;stroke-width:0.8;"/>
     </g>
     <g id="line2d_6">
      <g>
       <use style="stroke:#000000;stroke-width:0.8;" x="253.710744" xlink:href="#m813a3f0bf1" y="315"/>
      </g>
     </g>
     <g id="text_3">
      <!-- 100 -->
      <g transform="translate(246.210744 328.939062)scale(0.1 -0.1)">
       <defs>
        <path d="M 569 3653 
L 569 3853 
Q 1338 3853 1734 4263 
Q 1844 4263 1862 4238 
Q 1881 4213 1881 4097 
L 1881 506 
Q 1881 316 1975 256 
Q 2069 197 2478 197 
L 2681 197 
L 2681 0 
Q 2456 19 1643 19 
Q 831 19 609 0 
L 609 197 
L 813 197 
Q 1216 197 1312 255 
Q 1409 313 1409 506 
L 1409 3822 
Q 1075 3653 569 3653 
z
" id="CMUSerif-Roman-31" transform="scale(0.015625)"/>
       </defs>
       <use xlink:href="#CMUSerif-Roman-31"/>
       <use x="50" xlink:href="#CMUSerif-Roman-30"/>
       <use x="100" xlink:href="#CMUSerif-Roman-30"/>
      </g>
     </g>
    </g>
    <g id="xtick_4">
     <g id="line2d_7">
      <path clip-path="url(#p4bb18a3be7)" d="M 323.58302 315 
L 323.58302 43.2 
" style="fill:none;stroke:#b0b0b0;stroke-linecap:square;stroke-width:0.8;"/>
     </g>
     <g id="line2d_8">
      <g>
       <use style="stroke:#000000;stroke-width:0.8;" x="323.58302" xlink:href="#m813a3f0bf1" y="315"/>
      </g>
     </g>
     <g id="text_4">
      <!-- 150 -->
      <g transform="translate(316.08302 328.939062)scale(0.1 -0.1)">
       <use xlink:href="#CMUSerif-Roman-31"/>
       <use x="50" xlink:href="#CMUSerif-Roman-35"/>
       <use x="100" xlink:href="#CMUSerif-Roman-30"/>
      </g>
     </g>
    </g>
    <g id="xtick_5">
     <g id="line2d_9">
      <path clip-path="url(#p4bb18a3be7)" d="M 393.455297 315 
L 393.455297 43.2 
" style="fill:none;stroke:#b0b0b0;stroke-linecap:square;stroke-width:0.8;"/>
     </g>
     <g id="line2d_10">
      <g>
       <use style="stroke:#000000;stroke-width:0.8;" x="393.455297" xlink:href="#m813a3f0bf1" y="315"/>
      </g>
     </g>
     <g id="text_5">
      <!-- 200 -->
      <g transform="translate(385.955297 328.939062)scale(0.1 -0.1)">
       <defs>
        <path d="M 319 0 
Q 319 116 330 150 
Q 341 184 391 238 
L 1619 1606 
Q 2291 2363 2291 3022 
Q 2291 3450 2067 3756 
Q 1844 4063 1434 4063 
Q 1153 4063 915 3891 
Q 678 3719 569 3413 
Q 588 3419 653 3419 
Q 813 3419 902 3319 
Q 991 3219 991 3084 
Q 991 2913 880 2830 
Q 769 2747 659 2747 
Q 616 2747 558 2756 
Q 500 2766 409 2855 
Q 319 2944 319 3103 
Q 319 3550 658 3906 
Q 997 4263 1516 4263 
Q 2103 4263 2489 3914 
Q 2875 3566 2875 3022 
Q 2875 2831 2817 2657 
Q 2759 2484 2682 2350 
Q 2606 2216 2400 2000 
Q 2194 1784 2028 1631 
Q 1863 1478 1491 1153 
L 813 494 
L 1966 494 
Q 2528 494 2572 544 
Q 2634 634 2713 1113 
L 2875 1113 
L 2694 0 
L 319 0 
z
" id="CMUSerif-Roman-32" transform="scale(0.015625)"/>
       </defs>
       <use xlink:href="#CMUSerif-Roman-32"/>
       <use x="50" xlink:href="#CMUSerif-Roman-30"/>
       <use x="100" xlink:href="#CMUSerif-Roman-30"/>
      </g>
     </g>
    </g>
    <g id="xtick_6">
     <g id="line2d_11">
      <path clip-path="url(#p4bb18a3be7)" d="M 463.327573 315 
L 463.327573 43.2 
" style="fill:none;stroke:#b0b0b0;stroke-linecap:square;stroke-width:0.8;"/>
     </g>
     <g id="line2d_12">
      <g>
       <use style="stroke:#000000;stroke-width:0.8;" x="463.327573" xlink:href="#m813a3f0bf1" y="315"/>
      </g>
     </g>
     <g id="text_6">
      <!-- 250 -->
      <g transform="translate(455.827573 328.939062)scale(0.1 -0.1)">
       <use xlink:href="#CMUSerif-Roman-32"/>
       <use x="50" xlink:href="#CMUSerif-Roman-35"/>
       <use x="100" xlink:href="#CMUSerif-Roman-30"/>
      </g>
     </g>
    </g>
    <g id="xtick_7">
     <g id="line2d_13">
      <path clip-path="url(#p4bb18a3be7)" d="M 533.19985 315 
L 533.19985 43.2 
" style="fill:none;stroke:#b0b0b0;stroke-linecap:square;stroke-width:0.8;"/>
     </g>
     <g id="line2d_14">
      <g>
       <use style="stroke:#000000;stroke-width:0.8;" x="533.19985" xlink:href="#m813a3f0bf1" y="315"/>
      </g>
     </g>
     <g id="text_7">
      <!-- 300 -->
      <g transform="translate(525.69985 328.939062)scale(0.1 -0.1)">
       <defs>
        <path d="M 269 863 
Q 269 1053 378 1143 
Q 488 1234 628 1234 
Q 775 1234 879 1139 
Q 984 1044 984 878 
Q 984 700 861 600 
Q 738 500 563 525 
Q 716 269 998 153 
Q 1281 38 1544 38 
Q 1819 38 2042 275 
Q 2266 513 2266 1094 
Q 2266 1588 2073 1872 
Q 1881 2156 1503 2156 
L 1222 2156 
Q 1125 2156 1097 2165 
Q 1069 2175 1069 2228 
Q 1069 2291 1166 2303 
Q 1263 2303 1416 2322 
Q 1788 2334 1984 2656 
Q 2163 2956 2163 3384 
Q 2163 3775 1977 3939 
Q 1791 4103 1550 4103 
Q 1325 4103 1078 4009 
Q 831 3916 697 3706 
Q 1094 3706 1094 3384 
Q 1094 3244 1005 3151 
Q 916 3059 769 3059 
Q 628 3059 534 3148 
Q 441 3238 441 3391 
Q 441 3756 767 4009 
Q 1094 4263 1575 4263 
Q 2050 4263 2401 4013 
Q 2753 3763 2753 3378 
Q 2753 3000 2503 2690 
Q 2253 2381 1856 2253 
Q 2344 2156 2634 1826 
Q 2925 1497 2925 1094 
Q 2925 594 2531 226 
Q 2138 -141 1563 -141 
Q 1031 -141 650 146 
Q 269 434 269 863 
z
" id="CMUSerif-Roman-33" transform="scale(0.015625)"/>
       </defs>
       <use xlink:href="#CMUSerif-Roman-33"/>
       <use x="50" xlink:href="#CMUSerif-Roman-30"/>
       <use x="100" xlink:href="#CMUSerif-Roman-30"/>
      </g>
     </g>
    </g>
    <g id="xtick_8">
     <g id="line2d_15">
      <path clip-path="url(#p4bb18a3be7)" d="M 603.072126 315 
L 603.072126 43.2 
" style="fill:none;stroke:#b0b0b0;stroke-linecap:square;stroke-width:0.8;"/>
     </g>
     <g id="line2d_16">
      <g>
       <use style="stroke:#000000;stroke-width:0.8;" x="603.072126" xlink:href="#m813a3f0bf1" y="315"/>
      </g>
     </g>
     <g id="text_8">
      <!-- 350 -->
      <g transform="translate(595.572126 328.939062)scale(0.1 -0.1)">
       <use xlink:href="#CMUSerif-Roman-33"/>
       <use x="50" xlink:href="#CMUSerif-Roman-35"/>
       <use x="100" xlink:href="#CMUSerif-Roman-30"/>
      </g>
     </g>
    </g>
    <g id="text_9">
     <!-- Número de Días -->
     <g transform="translate(333.657812 341.817187)scale(0.1 -0.1)">
      <defs>
       <path d="M 213 0 
L 213 197 
Q 444 197 591 242 
Q 738 288 791 373 
Q 844 459 858 517 
Q 872 575 872 672 
L 872 4013 
Q 872 4103 848 4125 
Q 825 4147 716 4159 
Q 525 4172 397 4172 
L 213 4172 
L 213 4372 
L 1300 4372 
Q 1391 4372 1416 4359 
Q 1441 4347 1484 4288 
L 3744 966 
L 3744 3700 
Q 3744 3797 3731 3853 
Q 3719 3909 3664 3996 
Q 3609 4084 3462 4128 
Q 3316 4172 3084 4172 
L 3084 4372 
Q 3756 4353 3832 4353 
Q 3909 4353 4581 4372 
L 4581 4172 
Q 4350 4172 4203 4128 
Q 4056 4084 4003 3996 
Q 3950 3909 3936 3851 
Q 3922 3794 3922 3700 
L 3922 166 
Q 3922 63 3909 31 
Q 3897 0 3834 0 
Q 3791 0 3725 84 
L 1113 3922 
Q 1088 3959 1050 4000 
L 1050 672 
Q 1050 575 1062 517 
Q 1075 459 1129 373 
Q 1184 288 1331 242 
Q 1478 197 1709 197 
L 1709 0 
Q 1038 19 961 19 
Q 884 19 213 0 
z
" id="CMUSerif-Roman-4e" transform="scale(0.015625)"/>
       <path d="M 206 2559 
L 206 2759 
L 1147 2828 
L 1147 703 
Q 1147 550 1159 461 
Q 1172 372 1223 269 
Q 1275 166 1395 119 
Q 1516 72 1709 72 
Q 2056 72 2270 356 
Q 2484 641 2484 1063 
L 2484 2203 
Q 2484 2441 2400 2500 
Q 2316 2559 1984 2559 
L 1984 2759 
L 2925 2828 
L 2925 556 
Q 2925 319 3008 258 
Q 3091 197 3425 197 
L 3425 0 
L 2503 -72 
L 2503 506 
Q 2234 -69 1678 -72 
Q 1397 -72 1205 0 
Q 1013 72 916 161 
Q 819 250 767 422 
Q 716 594 709 700 
Q 703 806 703 1013 
L 703 1972 
Q 703 2406 640 2482 
Q 578 2559 206 2559 
z
M 1222 3263 
Q 1394 3428 1644 3675 
Q 1950 3981 2031 4045 
Q 2113 4109 2181 4109 
Q 2278 4109 2342 4032 
Q 2406 3956 2406 3872 
Q 2406 3834 2393 3804 
Q 2381 3775 2365 3753 
Q 2350 3731 2320 3709 
Q 2291 3688 2275 3678 
Q 2259 3669 2225 3648 
Q 2191 3628 2181 3622 
Q 1344 3147 1319 3138 
L 1222 3263 
z
" id="CMUSerif-Roman-fa" transform="scale(0.015625)"/>
       <path d="M 206 0 
L 206 197 
Q 547 197 625 239 
Q 703 281 703 488 
L 703 2203 
Q 703 2441 620 2500 
Q 538 2559 206 2559 
L 206 2759 
L 1106 2828 
L 1106 2156 
Q 1406 2828 2053 2828 
Q 2803 2828 2906 2203 
Q 3016 2447 3245 2637 
Q 3475 2828 3834 2828 
Q 4316 2828 4506 2591 
Q 4647 2431 4675 2253 
Q 4703 2075 4703 1613 
L 4703 391 
Q 4709 256 4812 226 
Q 4916 197 5203 197 
L 5203 0 
Q 4550 19 4488 19 
Q 4438 19 3763 0 
L 3763 197 
Q 4103 197 4183 239 
Q 4263 281 4263 488 
L 4263 1978 
Q 4263 2303 4163 2495 
Q 4063 2688 3788 2688 
Q 3456 2688 3190 2409 
Q 2925 2131 2925 1663 
L 2925 488 
Q 2925 281 3004 239 
Q 3084 197 3425 197 
L 3425 0 
Q 2772 19 2706 19 
Q 2656 19 1984 0 
L 1984 197 
Q 2325 197 2404 239 
Q 2484 281 2484 488 
L 2484 1978 
Q 2484 2303 2384 2495 
Q 2284 2688 2009 2688 
Q 1678 2688 1412 2409 
Q 1147 2131 1147 1663 
L 1147 488 
Q 1147 281 1226 239 
Q 1306 197 1644 197 
L 1644 0 
Q 991 19 928 19 
Q 878 19 206 0 
z
" id="CMUSerif-Roman-6d" transform="scale(0.015625)"/>
       <path d="M 178 1409 
Q 178 2013 565 2441 
Q 953 2869 1509 2869 
Q 2072 2869 2364 2503 
Q 2656 2138 2656 1613 
Q 2656 1516 2631 1497 
Q 2606 1478 2497 1478 
L 709 1478 
Q 709 825 903 519 
Q 1172 91 1625 91 
Q 1688 91 1763 103 
Q 1838 116 1991 170 
Q 2144 225 2278 372 
Q 2413 519 2491 750 
Q 2509 841 2572 838 
Q 2656 838 2656 763 
Q 2656 706 2595 579 
Q 2534 453 2418 303 
Q 2303 153 2079 40 
Q 1856 -72 1588 -72 
Q 1025 -72 601 354 
Q 178 781 178 1409 
z
M 716 1613 
L 2234 1613 
Q 2234 1747 2211 1897 
Q 2188 2047 2120 2255 
Q 2053 2463 1897 2594 
Q 1741 2725 1509 2725 
Q 1406 2725 1295 2681 
Q 1184 2638 1050 2531 
Q 916 2425 822 2184 
Q 728 1944 716 1613 
z
" id="CMUSerif-Roman-65" transform="scale(0.015625)"/>
       <path d="M 178 0 
L 178 197 
Q 519 197 598 239 
Q 678 281 678 488 
L 678 2203 
Q 678 2441 595 2500 
Q 513 2559 178 2559 
L 178 2759 
L 1069 2828 
L 1069 2125 
Q 1159 2400 1351 2614 
Q 1544 2828 1856 2828 
Q 2063 2828 2195 2712 
Q 2328 2597 2328 2438 
Q 2328 2297 2242 2226 
Q 2156 2156 2053 2156 
Q 1938 2156 1858 2229 
Q 1778 2303 1778 2431 
Q 1778 2509 1814 2570 
Q 1850 2631 1878 2653 
Q 1906 2675 1925 2681 
Q 1913 2688 1856 2688 
Q 1503 2688 1301 2336 
Q 1100 1984 1100 1484 
L 1100 500 
Q 1100 316 1176 256 
Q 1253 197 1588 197 
L 1722 197 
L 1722 0 
Q 1466 19 909 19 
Q 831 19 709 16 
Q 588 13 428 6 
Q 269 0 178 0 
z
" id="CMUSerif-Roman-72" transform="scale(0.015625)"/>
       <path d="M 601 345 
Q 178 763 178 1370 
Q 178 1978 592 2423 
Q 1006 2869 1600 2869 
Q 2181 2869 2598 2426 
Q 3016 1984 3016 1369 
Q 3016 766 2595 347 
Q 2175 -72 1594 -72 
Q 1025 -72 601 345 
z
M 709 1422 
Q 709 800 872 519 
Q 1122 91 1600 91 
Q 1838 91 2036 219 
Q 2234 347 2344 563 
Q 2484 844 2484 1422 
Q 2484 2038 2316 2309 
Q 2066 2725 1594 2725 
Q 1388 2725 1186 2617 
Q 984 2509 863 2297 
Q 709 2016 709 1422 
z
" id="CMUSerif-Roman-6f" transform="scale(0.015625)"/>
       <path id="CMUSerif-Roman-20" transform="scale(0.015625)"/>
       <path d="M 219 1375 
Q 219 1984 644 2406 
Q 1069 2828 1644 2828 
Q 2131 2828 2450 2431 
L 2450 3816 
Q 2450 4053 2367 4112 
Q 2284 4172 1953 4172 
L 1953 4372 
L 2875 4441 
L 2875 556 
Q 2875 319 2958 258 
Q 3041 197 3372 197 
L 3372 0 
L 2431 -72 
L 2431 353 
Q 2100 -69 1575 -72 
Q 1025 -72 622 350 
Q 219 772 219 1375 
z
M 750 1369 
Q 750 775 934 481 
Q 1191 72 1606 72 
Q 2081 72 2363 519 
Q 2434 628 2431 756 
L 2431 2069 
Q 2431 2197 2363 2303 
Q 2100 2688 1672 2688 
Q 1225 2688 947 2278 
Q 750 1972 750 1369 
z
" id="CMUSerif-Roman-64" transform="scale(0.015625)"/>
       <path d="M 225 0 
L 225 197 
L 378 197 
Q 725 197 804 255 
Q 884 313 884 500 
L 884 3872 
Q 884 4056 803 4114 
Q 722 4172 378 4172 
L 225 4172 
L 225 4372 
L 2566 4372 
Q 3384 4372 3954 3719 
Q 4525 3066 4525 2150 
Q 4525 1253 3951 626 
Q 3378 0 2566 0 
L 225 0 
z
M 1434 453 
Q 1434 288 1481 242 
Q 1528 197 1747 197 
L 2394 197 
Q 2816 197 3100 370 
Q 3384 544 3531 744 
Q 3884 1225 3884 2150 
Q 3884 3122 3553 3578 
Q 3125 4172 2388 4172 
L 1747 4172 
Q 1528 4172 1481 4128 
Q 1434 4084 1434 3916 
L 1434 453 
z
" id="CMUSerif-Roman-44" transform="scale(0.015625)"/>
       <path d="M 213 0 
L 213 197 
Q 553 197 631 239 
Q 709 281 709 488 
L 709 2209 
Q 709 2447 629 2503 
Q 550 2559 238 2559 
L 238 2759 
L 1131 2828 
L 1131 481 
Q 1131 291 1200 244 
Q 1269 197 1581 197 
L 1581 0 
Q 928 19 916 19 
Q 828 19 213 0 
z
M 513 3263 
Q 684 3434 941 3681 
Q 1253 3988 1328 4048 
Q 1403 4109 1472 4109 
Q 1569 4109 1633 4032 
Q 1697 3956 1697 3872 
Q 1697 3822 1676 3780 
Q 1656 3738 1609 3703 
Q 1563 3669 1542 3658 
Q 1522 3647 1472 3622 
Q 634 3147 609 3138 
L 513 3263 
z
" id="CMUSerif-Roman-ed" transform="scale(0.015625)"/>
       <path d="M 269 609 
Q 269 1153 909 1441 
Q 1294 1625 2088 1672 
L 2088 1906 
Q 2088 2303 1880 2514 
Q 1672 2725 1409 2725 
Q 941 2725 716 2431 
Q 906 2425 975 2329 
Q 1044 2234 1044 2138 
Q 1044 2009 964 1926 
Q 884 1844 750 1844 
Q 622 1844 537 1923 
Q 453 2003 453 2144 
Q 453 2456 736 2662 
Q 1019 2869 1422 2869 
Q 1947 2869 2297 2516 
Q 2406 2406 2461 2265 
Q 2516 2125 2522 2033 
Q 2528 1941 2528 1759 
L 2528 481 
Q 2528 444 2540 381 
Q 2553 319 2611 239 
Q 2669 159 2766 159 
Q 2997 159 2994 569 
L 2994 928 
L 3156 928 
L 3156 569 
Q 3156 228 2976 95 
Q 2797 -38 2631 -38 
Q 2419 -38 2284 118 
Q 2150 275 2131 488 
Q 2034 244 1814 86 
Q 1594 -72 1294 -72 
Q 1063 -72 845 -14 
Q 628 44 448 205 
Q 269 366 269 609 
z
M 763 616 
Q 763 378 931 225 
Q 1100 72 1338 72 
Q 1606 72 1847 280 
Q 2088 488 2088 897 
L 2088 1538 
Q 1378 1513 1070 1230 
Q 763 947 763 616 
z
" id="CMUSerif-Roman-61" transform="scale(0.015625)"/>
       <path d="M 213 84 
L 213 928 
Q 213 1000 216 1025 
Q 219 1050 237 1069 
Q 256 1088 294 1088 
Q 338 1088 355 1069 
Q 372 1050 384 978 
Q 481 538 689 305 
Q 897 72 1275 72 
Q 1634 72 1815 231 
Q 1997 391 1997 653 
Q 1997 1122 1331 1241 
Q 947 1319 787 1370 
Q 628 1422 488 1538 
Q 213 1763 213 2081 
Q 213 2400 455 2634 
Q 697 2869 1234 2869 
Q 1594 2869 1838 2688 
Q 1909 2744 1947 2791 
Q 2031 2869 2075 2869 
Q 2125 2869 2134 2836 
Q 2144 2803 2144 2713 
L 2144 2069 
Q 2144 1997 2141 1972 
Q 2138 1947 2119 1930 
Q 2100 1913 2059 1913 
Q 1988 1913 1984 1972 
Q 1934 2747 1234 2747 
Q 856 2747 687 2601 
Q 519 2456 519 2259 
Q 519 2150 570 2067 
Q 622 1984 689 1936 
Q 756 1888 881 1842 
Q 1006 1797 1082 1781 
Q 1159 1766 1306 1734 
Q 1819 1638 2034 1428 
Q 2303 1159 2303 819 
Q 2303 441 2047 184 
Q 1791 -72 1275 -72 
Q 859 -72 569 206 
Q 531 169 503 136 
Q 475 103 464 90 
Q 453 78 450 70 
Q 447 63 441 56 
Q 313 -72 281 -72 
Q 231 -72 222 -39 
Q 213 -6 213 84 
z
" id="CMUSerif-Roman-73" transform="scale(0.015625)"/>
      </defs>
      <use xlink:href="#CMUSerif-Roman-4e"/>
      <use x="75" xlink:href="#CMUSerif-Roman-fa"/>
      <use x="130.46875" xlink:href="#CMUSerif-Roman-6d"/>
      <use x="213.720703" xlink:href="#CMUSerif-Roman-65"/>
      <use x="258.105469" xlink:href="#CMUSerif-Roman-72"/>
      <use x="297.167969" xlink:href="#CMUSerif-Roman-6f"/>
      <use x="347.167969" xlink:href="#CMUSerif-Roman-20"/>
      <use x="380.419922" xlink:href="#CMUSerif-Roman-64"/>
      <use x="435.888672" xlink:href="#CMUSerif-Roman-65"/>
      <use x="480.273438" xlink:href="#CMUSerif-Roman-20"/>
      <use x="513.525391" xlink:href="#CMUSerif-Roman-44"/>
      <use x="589.794922" xlink:href="#CMUSerif-Roman-ed"/>
      <use x="617.480469" xlink:href="#CMUSerif-Roman-61"/>
      <use x="667.480469" xlink:href="#CMUSerif-Roman-73"/>
     </g>
    </g>
   </g>
   <g id="matplotlib.axis_2">
    <g id="ytick_1">
     <g id="line2d_17">
      <path clip-path="url(#p4bb18a3be7)" d="M 90 306.146537 
L 648 306.146537 
" style="fill:none;stroke:#b0b0b0;stroke-linecap:square;stroke-width:0.8;"/>
     </g>
     <g id="line2d_18">
      <defs>
       <path d="M 0 0 
L -3.5 0 
" id="mef72cf5386" style="stroke:#000000;stroke-width:0.8;"/>
      </defs>
      <g>
       <use style="stroke:#000000;stroke-width:0.8;" x="90" xlink:href="#mef72cf5386" y="306.146537"/>
      </g>
     </g>
     <g id="text_10">
      <!-- 1320 -->
      <g transform="translate(63 309.616068)scale(0.1 -0.1)">
       <use xlink:href="#CMUSerif-Roman-31"/>
       <use x="50" xlink:href="#CMUSerif-Roman-33"/>
       <use x="100" xlink:href="#CMUSerif-Roman-32"/>
       <use x="150" xlink:href="#CMUSerif-Roman-30"/>
      </g>
     </g>
    </g>
    <g id="ytick_2">
     <g id="line2d_19">
      <path clip-path="url(#p4bb18a3be7)" d="M 90 253.362976 
L 648 253.362976 
" style="fill:none;stroke:#b0b0b0;stroke-linecap:square;stroke-width:0.8;"/>
     </g>
     <g id="line2d_20">
      <g>
       <use style="stroke:#000000;stroke-width:0.8;" x="90" xlink:href="#mef72cf5386" y="253.362976"/>
      </g>
     </g>
     <g id="text_11">
      <!-- 1340 -->
      <g transform="translate(63 256.832507)scale(0.1 -0.1)">
       <defs>
        <path d="M 178 1056 
L 178 1253 
L 2144 4256 
Q 2194 4334 2272 4331 
Q 2344 4331 2359 4303 
Q 2375 4275 2375 4166 
L 2375 1253 
L 3016 1253 
L 3016 1056 
L 2375 1056 
L 2375 500 
Q 2375 316 2451 256 
Q 2528 197 2859 197 
L 2994 197 
L 2994 0 
Q 2731 19 2125 19 
Q 1522 19 1259 0 
L 1259 197 
L 1394 197 
Q 1725 197 1803 255 
Q 1881 313 1881 500 
L 1881 1056 
L 178 1056 
z
M 359 1253 
L 1919 1253 
L 1919 3641 
L 359 1253 
z
" id="CMUSerif-Roman-34" transform="scale(0.015625)"/>
       </defs>
       <use xlink:href="#CMUSerif-Roman-31"/>
       <use x="50" xlink:href="#CMUSerif-Roman-33"/>
       <use x="100" xlink:href="#CMUSerif-Roman-34"/>
       <use x="150" xlink:href="#CMUSerif-Roman-30"/>
      </g>
     </g>
    </g>
    <g id="ytick_3">
     <g id="line2d_21">
      <path clip-path="url(#p4bb18a3be7)" d="M 90 200.579414 
L 648 200.579414 
" style="fill:none;stroke:#b0b0b0;stroke-linecap:square;stroke-width:0.8;"/>
     </g>
     <g id="line2d_22">
      <g>
       <use style="stroke:#000000;stroke-width:0.8;" x="90" xlink:href="#mef72cf5386" y="200.579414"/>
      </g>
     </g>
     <g id="text_12">
      <!-- 1360 -->
      <g transform="translate(63 204.048945)scale(0.1 -0.1)">
       <defs>
        <path d="M 269 2022 
Q 269 3028 781 3645 
Q 1294 4263 1953 4263 
Q 2338 4263 2552 4067 
Q 2766 3872 2766 3572 
Q 2766 3406 2669 3334 
Q 2572 3263 2472 3263 
Q 2356 3263 2265 3341 
Q 2175 3419 2175 3559 
Q 2175 3847 2528 3847 
Q 2363 4103 1966 4103 
Q 1844 4103 1719 4067 
Q 1594 4031 1431 3912 
Q 1269 3794 1144 3606 
Q 1019 3419 931 3066 
Q 844 2713 844 2253 
L 844 2100 
Q 1106 2734 1643 2732 
Q 2181 2731 2553 2322 
Q 2925 1913 2925 1306 
Q 2925 684 2537 271 
Q 2150 -141 1606 -141 
Q 1363 -141 1142 -39 
Q 922 63 717 294 
Q 513 525 391 969 
Q 269 1413 269 2022 
z
M 856 1447 
Q 856 819 972 519 
Q 991 469 1033 400 
Q 1075 331 1148 242 
Q 1222 153 1344 95 
Q 1466 38 1606 38 
Q 2034 38 2241 453 
Q 2350 684 2350 1313 
Q 2350 1953 2234 2188 
Q 2038 2584 1638 2584 
Q 1369 2584 1183 2400 
Q 997 2216 926 1969 
Q 856 1722 856 1447 
z
" id="CMUSerif-Roman-36" transform="scale(0.015625)"/>
       </defs>
       <use xlink:href="#CMUSerif-Roman-31"/>
       <use x="50" xlink:href="#CMUSerif-Roman-33"/>
       <use x="100" xlink:href="#CMUSerif-Roman-36"/>
       <use x="150" xlink:href="#CMUSerif-Roman-30"/>
      </g>
     </g>
    </g>
    <g id="ytick_4">
     <g id="line2d_23">
      <path clip-path="url(#p4bb18a3be7)" d="M 90 147.795853 
L 648 147.795853 
" style="fill:none;stroke:#b0b0b0;stroke-linecap:square;stroke-width:0.8;"/>
     </g>
     <g id="line2d_24">
      <g>
       <use style="stroke:#000000;stroke-width:0.8;" x="90" xlink:href="#mef72cf5386" y="147.795853"/>
      </g>
     </g>
     <g id="text_13">
      <!-- 1380 -->
      <g transform="translate(63 151.265384)scale(0.1 -0.1)">
       <defs>
        <path d="M 269 966 
Q 269 1681 1191 2144 
Q 794 2413 722 2491 
Q 441 2803 441 3194 
Q 441 3641 780 3952 
Q 1119 4263 1600 4263 
Q 2059 4263 2406 3997 
Q 2753 3731 2753 3309 
Q 2753 2716 1978 2316 
Q 2491 1997 2613 1863 
Q 2925 1516 2925 1075 
Q 2925 563 2531 211 
Q 2138 -141 1594 -141 
Q 1063 -141 666 168 
Q 269 478 269 966 
z
M 588 966 
Q 588 569 886 303 
Q 1184 38 1600 38 
Q 2003 38 2304 269 
Q 2606 500 2606 844 
Q 2606 978 2561 1093 
Q 2516 1209 2427 1301 
Q 2338 1394 2283 1436 
Q 2228 1478 2125 1550 
L 1338 2047 
Q 588 1631 588 966 
z
M 722 3444 
Q 722 3138 1044 2925 
L 1838 2413 
Q 2472 2784 2472 3309 
Q 2472 3650 2212 3876 
Q 1953 4103 1594 4103 
Q 1241 4103 981 3917 
Q 722 3731 722 3444 
z
" id="CMUSerif-Roman-38" transform="scale(0.015625)"/>
       </defs>
       <use xlink:href="#CMUSerif-Roman-31"/>
       <use x="50" xlink:href="#CMUSerif-Roman-33"/>
       <use x="100" xlink:href="#CMUSerif-Roman-38"/>
       <use x="150" xlink:href="#CMUSerif-Roman-30"/>
      </g>
     </g>
    </g>
    <g id="ytick_5">
     <g id="line2d_25">
      <path clip-path="url(#p4bb18a3be7)" d="M 90 95.012291 
L 648 95.012291 
" style="fill:none;stroke:#b0b0b0;stroke-linecap:square;stroke-width:0.8;"/>
     </g>
     <g id="line2d_26">
      <g>
       <use style="stroke:#000000;stroke-width:0.8;" x="90" xlink:href="#mef72cf5386" y="95.012291"/>
      </g>
     </g>
     <g id="text_14">
      <!-- 1400 -->
      <g transform="translate(63 98.481823)scale(0.1 -0.1)">
       <use xlink:href="#CMUSerif-Roman-31"/>
       <use x="50" xlink:href="#CMUSerif-Roman-34"/>
       <use x="100" xlink:href="#CMUSerif-Roman-30"/>
       <use x="150" xlink:href="#CMUSerif-Roman-30"/>
      </g>
     </g>
    </g>
    <g id="text_15">
     <!-- $G_{on}, W / m^{2} $ -->
     <g transform="translate(57.060937 204.15)rotate(-90)scale(0.1 -0.1)">
      <defs>
       <path d="M 3494 697 
L 3738 1919 
L 2700 1919 
L 2797 2438 
L 4453 2438 
L 4050 384 
Q 3634 156 3143 32 
Q 2653 -91 2156 -91 
Q 1278 -91 783 396 
Q 288 884 288 1753 
Q 288 2475 589 3126 
Q 891 3778 1422 4213 
Q 1756 4484 2153 4617 
Q 2550 4750 3034 4750 
Q 3472 4750 3873 4639 
Q 4275 4528 4641 4306 
L 4513 3634 
Q 4231 3928 3853 4083 
Q 3475 4238 3047 4238 
Q 2550 4238 2172 4048 
Q 1794 3859 1497 3463 
Q 1244 3125 1098 2667 
Q 953 2209 953 1734 
Q 953 1081 1287 751 
Q 1622 422 2284 422 
Q 2616 422 2925 492 
Q 3234 563 3494 697 
z
" id="DejaVuSans-Oblique-47" transform="scale(0.015625)"/>
       <path d="M 1625 -91 
Q 1009 -91 651 289 
Q 294 669 294 1325 
Q 294 1706 417 2101 
Q 541 2497 738 2766 
Q 1047 3184 1428 3384 
Q 1809 3584 2291 3584 
Q 2888 3584 3255 3212 
Q 3622 2841 3622 2241 
Q 3622 1825 3500 1412 
Q 3378 1000 3181 728 
Q 2875 309 2494 109 
Q 2113 -91 1625 -91 
z
M 891 1344 
Q 891 869 1089 633 
Q 1288 397 1691 397 
Q 2269 397 2648 901 
Q 3028 1406 3028 2181 
Q 3028 2634 2825 2865 
Q 2622 3097 2228 3097 
Q 1903 3097 1650 2945 
Q 1397 2794 1197 2484 
Q 1050 2253 970 1956 
Q 891 1659 891 1344 
z
" id="DejaVuSans-Oblique-6f" transform="scale(0.015625)"/>
       <path d="M 3566 2113 
L 3156 0 
L 2578 0 
L 2988 2091 
Q 3016 2238 3031 2350 
Q 3047 2463 3047 2528 
Q 3047 2791 2881 2937 
Q 2716 3084 2419 3084 
Q 1956 3084 1622 2776 
Q 1288 2469 1184 1941 
L 800 0 
L 225 0 
L 903 3500 
L 1478 3500 
L 1363 2950 
Q 1603 3253 1940 3418 
Q 2278 3584 2650 3584 
Q 3113 3584 3367 3334 
Q 3622 3084 3622 2631 
Q 3622 2519 3608 2391 
Q 3594 2263 3566 2113 
z
" id="DejaVuSans-Oblique-6e" transform="scale(0.015625)"/>
       <path d="M 750 794 
L 1409 794 
L 1409 256 
L 897 -744 
L 494 -744 
L 750 256 
L 750 794 
z
" id="DejaVuSans-2c" transform="scale(0.015625)"/>
       <path d="M 616 4666 
L 1228 4666 
L 1453 697 
L 3213 4666 
L 3916 4666 
L 4147 697 
L 5888 4666 
L 6528 4666 
L 4453 0 
L 3659 0 
L 3444 3891 
L 1697 0 
L 903 0 
L 616 4666 
z
" id="DejaVuSans-Oblique-57" transform="scale(0.015625)"/>
       <path d="M 1625 4666 
L 2156 4666 
L 531 -594 
L 0 -594 
L 1625 4666 
z
" id="DejaVuSans-2f" transform="scale(0.015625)"/>
       <path d="M 5747 2113 
L 5338 0 
L 4763 0 
L 5166 2094 
Q 5191 2228 5203 2325 
Q 5216 2422 5216 2491 
Q 5216 2772 5059 2928 
Q 4903 3084 4622 3084 
Q 4203 3084 3875 2770 
Q 3547 2456 3450 1953 
L 3066 0 
L 2491 0 
L 2900 2094 
Q 2925 2209 2937 2307 
Q 2950 2406 2950 2484 
Q 2950 2769 2794 2926 
Q 2638 3084 2363 3084 
Q 1938 3084 1609 2770 
Q 1281 2456 1184 1953 
L 800 0 
L 225 0 
L 909 3500 
L 1484 3500 
L 1375 2956 
Q 1609 3263 1923 3423 
Q 2238 3584 2597 3584 
Q 2978 3584 3223 3384 
Q 3469 3184 3519 2828 
Q 3781 3197 4126 3390 
Q 4472 3584 4856 3584 
Q 5306 3584 5551 3325 
Q 5797 3066 5797 2591 
Q 5797 2488 5784 2364 
Q 5772 2241 5747 2113 
z
" id="DejaVuSans-Oblique-6d" transform="scale(0.015625)"/>
       <path d="M 1228 531 
L 3431 531 
L 3431 0 
L 469 0 
L 469 531 
Q 828 903 1448 1529 
Q 2069 2156 2228 2338 
Q 2531 2678 2651 2914 
Q 2772 3150 2772 3378 
Q 2772 3750 2511 3984 
Q 2250 4219 1831 4219 
Q 1534 4219 1204 4116 
Q 875 4013 500 3803 
L 500 4441 
Q 881 4594 1212 4672 
Q 1544 4750 1819 4750 
Q 2544 4750 2975 4387 
Q 3406 4025 3406 3419 
Q 3406 3131 3298 2873 
Q 3191 2616 2906 2266 
Q 2828 2175 2409 1742 
Q 1991 1309 1228 531 
z
" id="DejaVuSans-32" transform="scale(0.015625)"/>
      </defs>
      <use transform="translate(0 0.765625)" xlink:href="#DejaVuSans-Oblique-47"/>
      <use transform="translate(77.490234 -15.640625)scale(0.7)" xlink:href="#DejaVuSans-Oblique-6f"/>
      <use transform="translate(120.317383 -15.640625)scale(0.7)" xlink:href="#DejaVuSans-Oblique-6e"/>
      <use transform="translate(167.416992 0.765625)" xlink:href="#DejaVuSans-2c"/>
      <use transform="translate(218.686523 0.765625)" xlink:href="#DejaVuSans-Oblique-57"/>
      <use transform="translate(317.563477 0.765625)" xlink:href="#DejaVuSans-2f"/>
      <use transform="translate(351.254883 0.765625)" xlink:href="#DejaVuSans-Oblique-6d"/>
      <use transform="translate(453.316888 39.046875)scale(0.7)" xlink:href="#DejaVuSans-32"/>
     </g>
    </g>
   </g>
   <g id="line2d_27">
    <path clip-path="url(#p4bb18a3be7)" d="M 115.363636 55.653305 
L 118.158527 55.554545 
L 120.953418 55.614568 
L 123.74831 55.833305 
L 126.543201 56.210455 
L 129.338092 56.745485 
L 132.132983 57.437633 
L 134.927874 58.285906 
L 139.12021 59.848324 
L 143.312547 61.754173 
L 147.504884 63.997281 
L 151.69722 66.570395 
L 155.889557 69.465206 
L 160.081893 72.672394 
L 164.27423 76.181663 
L 168.466566 79.981794 
L 172.658903 84.06069 
L 176.85124 88.405429 
L 182.441022 94.588188 
L 188.030804 101.184765 
L 193.620586 108.158807 
L 199.210368 115.472248 
L 206.197596 125.03104 
L 213.184823 134.978729 
L 221.569497 147.314346 
L 232.749061 164.202932 
L 257.90308 202.404676 
L 266.287754 214.714248 
L 273.274981 224.651968 
L 280.262209 234.22546 
L 287.249437 243.37046 
L 292.839219 250.337526 
L 298.429001 256.963335 
L 304.018783 263.22122 
L 309.608565 269.086473 
L 313.800902 273.214001 
L 317.993238 277.098994 
L 322.185575 280.73323 
L 326.377911 284.109118 
L 330.570248 287.219694 
L 334.762585 290.058619 
L 338.954921 292.620176 
L 343.147258 294.899265 
L 347.339594 296.891396 
L 351.531931 298.592687 
L 355.724267 299.999858 
L 359.916604 301.110226 
L 364.108941 301.921702 
L 368.301277 302.432784 
L 372.493614 302.64256 
L 376.68595 302.550699 
L 380.878287 302.157453 
L 385.070624 301.463656 
L 389.26296 300.470723 
L 393.455297 299.180653 
L 397.647633 297.596029 
L 401.83997 295.720018 
L 406.032307 293.556379 
L 410.224643 291.109462 
L 414.41698 288.384213 
L 418.609316 285.386179 
L 422.801653 282.121509 
L 426.993989 278.596958 
L 431.186326 274.81989 
L 435.378663 270.798283 
L 440.968445 265.070676 
L 446.558227 258.945719 
L 452.148009 252.447388 
L 457.737791 245.601566 
L 463.327573 238.436015 
L 470.314801 229.074718 
L 477.302029 219.321916 
L 485.686702 207.194687 
L 495.46882 192.615374 
L 512.238167 167.113384 
L 526.212622 146.044879 
L 534.597295 133.776404 
L 541.584523 123.892598 
L 548.571751 114.404127 
L 554.161533 107.151096 
L 559.751315 100.240768 
L 565.341097 93.710866 
L 570.930879 87.597413 
L 575.123216 83.306192 
L 579.315552 79.281991 
L 583.507889 75.537613 
L 587.700225 72.085041 
L 591.892562 68.935386 
L 596.084899 66.098841 
L 600.277235 63.584628 
L 604.469572 61.400963 
L 608.661908 59.555013 
L 612.854245 58.052864 
L 615.649136 57.244936 
L 618.444027 56.593239 
L 621.238918 56.098743 
L 622.636364 55.910685 
L 622.636364 55.910685 
" style="fill:none;stroke:#000000;stroke-linecap:square;stroke-width:1.5;"/>
   </g>
   <g id="patch_3">
    <path d="M 90 315 
L 90 43.2 
" style="fill:none;stroke:#000000;stroke-linecap:square;stroke-linejoin:miter;stroke-width:0.8;"/>
   </g>
   <g id="patch_4">
    <path d="M 648 315 
L 648 43.2 
" style="fill:none;stroke:#000000;stroke-linecap:square;stroke-linejoin:miter;stroke-width:0.8;"/>
   </g>
   <g id="patch_5">
    <path d="M 90 315 
L 648 315 
" style="fill:none;stroke:#000000;stroke-linecap:square;stroke-linejoin:miter;stroke-width:0.8;"/>
   </g>
   <g id="patch_6">
    <path d="M 90 43.2 
L 648 43.2 
" style="fill:none;stroke:#000000;stroke-linecap:square;stroke-linejoin:miter;stroke-width:0.8;"/>
   </g>
   <g id="text_16">
    <!-- Variación de Radiación Extraterrestre -->
    <g transform="translate(268.864688 37.2)scale(0.12 -0.12)">
     <defs>
      <path d="M 122 4172 
L 122 4372 
Q 813 4353 934 4353 
Q 1619 4353 1850 4372 
L 1850 4172 
Q 1325 4172 1325 3988 
Q 1325 3963 1363 3872 
L 2584 641 
L 3756 3725 
Q 3788 3822 3788 3853 
Q 3788 3981 3670 4073 
Q 3553 4166 3322 4172 
L 3322 4372 
Q 3822 4353 4050 4353 
Q 4375 4353 4672 4372 
L 4672 4172 
Q 4134 4166 3975 3744 
L 2547 -19 
Q 2522 -97 2497 -119 
Q 2472 -141 2394 -141 
Q 2331 -141 2298 -116 
Q 2266 -91 2234 0 
L 750 3928 
Q 688 4100 575 4136 
Q 463 4172 122 4172 
z
" id="CMUSerif-Roman-56" transform="scale(0.015625)"/>
      <path d="M 213 0 
L 213 197 
Q 553 197 631 239 
Q 709 281 709 488 
L 709 2209 
Q 709 2447 629 2503 
Q 550 2559 238 2559 
L 238 2759 
L 1131 2828 
L 1131 481 
Q 1131 291 1200 244 
Q 1269 197 1581 197 
L 1581 0 
Q 928 19 916 19 
Q 828 19 213 0 
z
M 481 3944 
Q 481 4072 579 4176 
Q 678 4281 818 4281 
Q 959 4281 1059 4186 
Q 1159 4091 1159 3942 
Q 1159 3794 1059 3698 
Q 959 3603 819 3603 
Q 672 3603 576 3706 
Q 481 3809 481 3944 
z
" id="CMUSerif-Roman-69" transform="scale(0.015625)"/>
      <path d="M 625 351 
Q 219 775 219 1383 
Q 219 1991 619 2430 
Q 1019 2869 1606 2869 
Q 1997 2869 2290 2683 
Q 2584 2497 2584 2181 
Q 2584 2041 2501 1961 
Q 2419 1881 2291 1881 
Q 2156 1881 2076 1964 
Q 1997 2047 1997 2175 
Q 1997 2231 2015 2287 
Q 2034 2344 2104 2403 
Q 2175 2463 2297 2472 
Q 2069 2706 1625 2706 
Q 1619 2706 1613 2706 
Q 1288 2706 1019 2400 
Q 750 2094 750 1394 
Q 750 1028 839 761 
Q 928 494 1075 356 
Q 1222 219 1365 155 
Q 1509 91 1650 91 
Q 2278 91 2491 763 
Q 2509 825 2572 825 
Q 2656 825 2656 763 
Q 2656 731 2631 650 
Q 2606 569 2528 441 
Q 2450 313 2339 202 
Q 2228 91 2033 9 
Q 1838 -72 1594 -72 
Q 1031 -72 625 351 
z
" id="CMUSerif-Roman-63" transform="scale(0.015625)"/>
      <path d="M 601 345 
Q 178 763 178 1370 
Q 178 1978 592 2423 
Q 1006 2869 1600 2869 
Q 2181 2869 2598 2426 
Q 3016 1984 3016 1369 
Q 3016 766 2595 347 
Q 2175 -72 1594 -72 
Q 1025 -72 601 345 
z
M 709 1422 
Q 709 800 872 519 
Q 1122 91 1600 91 
Q 1838 91 2036 219 
Q 2234 347 2344 563 
Q 2484 844 2484 1422 
Q 2484 2038 2316 2309 
Q 2066 2725 1594 2725 
Q 1388 2725 1186 2617 
Q 984 2509 863 2297 
Q 709 2016 709 1422 
z
M 1009 3263 
Q 1181 3428 1431 3675 
Q 1738 3981 1819 4045 
Q 1900 4109 1969 4109 
Q 2066 4109 2130 4032 
Q 2194 3956 2194 3872 
Q 2194 3834 2181 3804 
Q 2169 3775 2153 3753 
Q 2138 3731 2108 3709 
Q 2078 3688 2062 3678 
Q 2047 3669 2012 3648 
Q 1978 3628 1969 3622 
Q 1131 3147 1106 3138 
L 1009 3263 
z
" id="CMUSerif-Roman-f3" transform="scale(0.015625)"/>
      <path d="M 206 0 
L 206 197 
Q 547 197 625 239 
Q 703 281 703 488 
L 703 2203 
Q 703 2441 620 2500 
Q 538 2559 206 2559 
L 206 2759 
L 1106 2828 
L 1106 2156 
Q 1406 2828 2053 2828 
Q 2534 2828 2725 2591 
Q 2866 2431 2895 2253 
Q 2925 2075 2925 1613 
L 2925 391 
Q 2931 256 3034 226 
Q 3138 197 3425 197 
L 3425 0 
Q 2772 19 2706 19 
Q 2656 19 1984 0 
L 1984 197 
Q 2325 197 2404 239 
Q 2484 281 2484 488 
L 2484 1978 
Q 2484 2303 2384 2495 
Q 2284 2688 2009 2688 
Q 1678 2688 1412 2409 
Q 1147 2131 1147 1663 
L 1147 488 
Q 1147 281 1226 239 
Q 1306 197 1644 197 
L 1644 0 
Q 991 19 928 19 
Q 878 19 206 0 
z
" id="CMUSerif-Roman-6e" transform="scale(0.015625)"/>
      <path d="M 225 0 
L 225 197 
L 378 197 
Q 725 197 804 255 
Q 884 313 884 500 
L 884 3872 
Q 884 4056 803 4114 
Q 722 4172 378 4172 
L 225 4172 
L 225 4372 
L 2234 4372 
Q 2931 4372 3417 4030 
Q 3903 3688 3903 3219 
Q 3903 2859 3587 2578 
Q 3272 2297 2784 2175 
Q 3419 1956 3566 1434 
L 3647 922 
Q 3672 738 3689 644 
Q 3706 550 3734 422 
Q 3763 294 3792 233 
Q 3822 172 3865 108 
Q 3909 44 3967 22 
Q 4025 0 4103 0 
Q 4250 0 4375 131 
Q 4500 263 4525 569 
Q 4538 672 4603 672 
Q 4684 672 4684 569 
Q 4684 478 4659 373 
Q 4634 269 4573 147 
Q 4513 25 4381 -58 
Q 4250 -141 4078 -141 
Q 3578 -141 3272 128 
Q 3144 244 3086 394 
Q 3028 544 3018 662 
Q 3009 781 3009 1044 
Q 3009 1416 2970 1578 
Q 2931 1741 2766 1900 
Q 2541 2119 2169 2119 
L 1434 2119 
L 1434 500 
Q 1434 316 1514 256 
Q 1594 197 1941 197 
L 2094 197 
L 2094 0 
Q 1863 19 1159 19 
Q 456 19 225 0 
z
M 1434 2259 
L 2144 2259 
Q 2484 2259 2714 2342 
Q 2944 2425 3053 2575 
Q 3163 2725 3203 2876 
Q 3244 3028 3244 3219 
Q 3244 3444 3194 3612 
Q 3144 3781 3034 3881 
Q 2925 3981 2815 4045 
Q 2706 4109 2537 4134 
Q 2369 4159 2253 4165 
Q 2138 4172 1953 4172 
Q 1641 4172 1575 4159 
Q 1503 4153 1475 4118 
Q 1447 4084 1440 4045 
Q 1434 4006 1434 3916 
L 1434 2259 
z
" id="CMUSerif-Roman-52" transform="scale(0.015625)"/>
      <path d="M 213 0 
L 213 197 
L 366 197 
Q 713 197 792 255 
Q 872 313 872 500 
L 872 3853 
Q 872 4038 790 4095 
Q 709 4153 366 4153 
L 213 4153 
L 213 4353 
L 3816 4353 
L 3994 2913 
L 3834 2913 
Q 3791 3278 3733 3489 
Q 3675 3700 3536 3862 
Q 3397 4025 3170 4089 
Q 2944 4153 2578 4153 
L 1753 4153 
Q 1534 4153 1487 4108 
Q 1441 4063 1441 3897 
L 1441 2363 
L 2016 2363 
Q 2456 2363 2581 2516 
Q 2706 2669 2706 3109 
L 2869 3109 
L 2869 1416 
L 2706 1416 
Q 2706 1850 2581 2006 
Q 2456 2163 2016 2163 
L 1441 2163 
L 1441 453 
Q 1441 288 1489 242 
Q 1538 197 1753 197 
L 2606 197 
Q 2881 197 3082 233 
Q 3284 269 3425 358 
Q 3566 447 3661 550 
Q 3756 653 3823 839 
Q 3891 1025 3930 1197 
Q 3969 1369 4013 1650 
L 4172 1650 
L 3903 0 
L 213 0 
z
" id="CMUSerif-Roman-45" transform="scale(0.015625)"/>
      <path d="M 78 0 
L 78 197 
Q 578 197 897 581 
Q 897 581 1497 1344 
L 863 2169 
Q 638 2456 539 2507 
Q 441 2559 109 2559 
L 109 2759 
Q 372 2741 716 2741 
Q 906 2741 1409 2759 
L 1409 2559 
Q 1184 2547 1184 2400 
Q 1184 2350 1241 2284 
L 1741 1638 
L 2138 2138 
Q 2234 2253 2234 2363 
Q 2234 2541 2047 2559 
L 2047 2759 
Q 2297 2741 2663 2741 
Q 2938 2741 3188 2759 
L 3188 2559 
Q 2700 2547 2425 2228 
Q 2303 2094 1838 1503 
L 2694 397 
Q 2797 263 2912 230 
Q 3028 197 3303 197 
L 3303 0 
Q 3016 19 2688 19 
Q 2572 19 1997 0 
L 1997 197 
Q 2113 203 2170 254 
Q 2228 306 2228 359 
Q 2228 384 2094 569 
L 1606 1209 
Q 1119 634 1056 500 
Q 1031 444 1031 397 
Q 1031 225 1216 197 
L 1216 0 
Q 756 19 609 19 
Q 328 19 78 0 
z
" id="CMUSerif-Roman-78" transform="scale(0.015625)"/>
      <path d="M 122 2559 
L 122 2700 
Q 416 2713 611 2920 
Q 806 3128 873 3384 
Q 941 3641 947 3938 
L 1106 3938 
L 1106 2759 
L 2022 2759 
L 2022 2559 
L 1106 2559 
L 1106 781 
Q 1106 91 1538 91 
Q 1722 91 1844 280 
Q 1966 469 1966 806 
L 1966 1159 
L 2125 1159 
L 2125 794 
Q 2125 447 1965 187 
Q 1806 -72 1491 -72 
Q 1375 -72 1261 -42 
Q 1147 -13 998 64 
Q 850 141 758 330 
Q 666 519 666 794 
L 666 2559 
L 122 2559 
z
" id="CMUSerif-Roman-74" transform="scale(0.015625)"/>
     </defs>
     <use xlink:href="#CMUSerif-Roman-56"/>
     <use x="75" xlink:href="#CMUSerif-Roman-61"/>
     <use x="125" xlink:href="#CMUSerif-Roman-72"/>
     <use x="164.0625" xlink:href="#CMUSerif-Roman-69"/>
     <use x="191.748047" xlink:href="#CMUSerif-Roman-61"/>
     <use x="241.748047" xlink:href="#CMUSerif-Roman-63"/>
     <use x="286.132812" xlink:href="#CMUSerif-Roman-69"/>
     <use x="313.818359" xlink:href="#CMUSerif-Roman-f3"/>
     <use x="363.818359" xlink:href="#CMUSerif-Roman-6e"/>
     <use x="419.287109" xlink:href="#CMUSerif-Roman-20"/>
     <use x="452.539062" xlink:href="#CMUSerif-Roman-64"/>
     <use x="508.007812" xlink:href="#CMUSerif-Roman-65"/>
     <use x="552.392578" xlink:href="#CMUSerif-Roman-20"/>
     <use x="585.644531" xlink:href="#CMUSerif-Roman-52"/>
     <use x="659.228516" xlink:href="#CMUSerif-Roman-61"/>
     <use x="709.228516" xlink:href="#CMUSerif-Roman-64"/>
     <use x="764.697266" xlink:href="#CMUSerif-Roman-69"/>
     <use x="792.382812" xlink:href="#CMUSerif-Roman-61"/>
     <use x="842.382812" xlink:href="#CMUSerif-Roman-63"/>
     <use x="886.767578" xlink:href="#CMUSerif-Roman-69"/>
     <use x="914.453125" xlink:href="#CMUSerif-Roman-f3"/>
     <use x="964.453125" xlink:href="#CMUSerif-Roman-6e"/>
     <use x="1019.921875" xlink:href="#CMUSerif-Roman-20"/>
     <use x="1053.173828" xlink:href="#CMUSerif-Roman-45"/>
     <use x="1121.142578" xlink:href="#CMUSerif-Roman-78"/>
     <use x="1173.828125" xlink:href="#CMUSerif-Roman-74"/>
     <use x="1212.597656" xlink:href="#CMUSerif-Roman-72"/>
     <use x="1251.660156" xlink:href="#CMUSerif-Roman-61"/>
     <use x="1301.660156" xlink:href="#CMUSerif-Roman-74"/>
     <use x="1340.429688" xlink:href="#CMUSerif-Roman-65"/>
     <use x="1384.814453" xlink:href="#CMUSerif-Roman-72"/>
     <use x="1423.876953" xlink:href="#CMUSerif-Roman-72"/>
     <use x="1462.939453" xlink:href="#CMUSerif-Roman-65"/>
     <use x="1507.324219" xlink:href="#CMUSerif-Roman-73"/>
     <use x="1546.679688" xlink:href="#CMUSerif-Roman-74"/>
     <use x="1585.449219" xlink:href="#CMUSerif-Roman-72"/>
     <use x="1624.511719" xlink:href="#CMUSerif-Roman-65"/>
    </g>
   </g>
  </g>
 </g>
 <defs>
  <clipPath id="p4bb18a3be7">
   <rect height="271.8" width="558" x="90" y="43.2"/>
  </clipPath>
 </defs>
</svg>
